<svg id="svg" version="1.1" xmlns="http://www.w3.org/2000/svg" xmlns:xlink="http://www.w3.org/1999/xlink" width="400" height="119.04761904761905" viewBox="0, 0, 400,119.04761904761905"><g id="svgg"><path id="path0" d="M108.175 1.992 C 108.042 2.076,107.861 2.101,107.774 2.047 C 107.687 1.993,107.669 2.036,107.736 2.144 C 107.802 2.251,107.945 2.281,108.053 2.211 C 108.161 2.141,148.600 2.046,197.917 2.000 L 287.583 1.916 198.000 1.877 C 143.777 1.854,108.321 1.899,108.175 1.992 M107.271 2.923 C 107.215 3.069,107.106 3.149,107.030 3.102 C 106.953 3.054,106.902 3.176,106.917 3.373 C 106.931 3.570,107.040 3.763,107.159 3.803 C 107.286 3.845,107.342 3.781,107.295 3.646 C 107.251 3.520,107.360 3.336,107.536 3.238 C 107.811 3.085,107.822 3.031,107.614 2.859 C 107.421 2.699,107.352 2.712,107.271 2.923 M287.000 2.823 C 287.000 2.948,260.436 3.000,197.687 3.000 C 116.582 3.000,108.354 3.024,108.156 3.263 C 107.975 3.480,107.979 3.551,108.177 3.677 C 108.330 3.774,108.344 3.829,108.217 3.831 C 108.107 3.832,107.943 3.702,107.853 3.542 C 107.698 3.267,107.682 3.268,107.570 3.558 C 107.500 3.742,107.535 3.918,107.656 3.994 C 107.812 4.090,107.802 4.143,107.618 4.214 C 107.484 4.265,107.290 4.223,107.187 4.120 C 107.049 3.982,107.000 3.986,107.000 4.133 C 107.000 4.243,106.927 4.333,106.839 4.333 C 106.750 4.333,106.720 4.221,106.773 4.083 C 106.826 3.946,106.793 3.833,106.699 3.833 C 106.516 3.833,106.528 4.251,106.717 4.440 C 106.906 4.628,106.851 4.778,106.593 4.778 C 106.460 4.778,106.357 4.734,106.362 4.681 C 106.419 4.151,106.301 3.943,106.154 4.313 C 106.051 4.570,106.054 4.781,106.162 4.911 C 106.347 5.133,105.650 5.927,105.447 5.725 C 105.386 5.664,105.335 23.865,105.334 46.172 C 105.333 68.480,105.269 86.773,105.191 86.824 C 105.114 86.875,105.052 87.056,105.053 87.226 C 105.055 87.498,105.093 87.488,105.372 87.142 C 105.665 86.780,105.676 86.777,105.511 87.114 C 105.295 87.557,105.285 87.716,105.481 87.595 C 105.701 87.459,105.847 88.200,105.648 88.440 C 105.553 88.554,105.360 88.602,105.218 88.548 C 105.012 88.469,105.039 88.406,105.355 88.231 C 105.664 88.059,105.687 88.011,105.458 88.006 C 105.298 88.003,105.167 87.925,105.167 87.833 C 105.167 87.742,105.103 87.667,105.026 87.667 C 104.948 87.667,104.895 87.861,104.908 88.099 C 104.932 88.547,105.402 88.961,105.572 88.684 C 105.703 88.474,106.372 88.667,106.620 88.987 C 106.751 89.157,106.825 89.178,106.828 89.045 C 106.831 88.915,107.021 88.862,107.346 88.900 C 107.673 88.938,107.891 88.876,107.947 88.730 C 108.022 88.537,119.086 88.501,179.677 88.500 L 251.319 88.499 252.260 88.851 L 253.202 89.204 252.752 89.499 C 252.474 89.681,252.372 89.837,252.484 89.907 C 252.585 89.969,252.667 89.936,252.667 89.833 C 252.667 89.731,252.753 89.701,252.859 89.766 C 252.978 89.840,253.006 89.812,252.933 89.692 C 252.867 89.587,252.901 89.500,253.008 89.500 C 253.134 89.500,253.165 89.652,253.095 89.931 C 253.008 90.278,253.055 90.379,253.339 90.453 C 253.595 90.520,253.670 90.642,253.613 90.898 C 253.557 91.153,253.701 91.388,254.134 91.750 C 254.463 92.025,254.676 92.156,254.607 92.042 C 254.537 91.927,254.555 91.833,254.647 91.833 C 254.739 91.833,254.861 91.910,254.918 92.003 C 254.976 92.096,255.078 92.138,255.145 92.097 C 255.211 92.056,255.257 92.354,255.245 92.761 C 255.234 93.167,255.268 93.506,255.321 93.512 C 255.374 93.519,255.604 93.558,255.833 93.598 L 256.250 93.671 255.801 93.372 C 255.477 93.156,255.394 93.005,255.501 92.832 C 255.626 92.630,255.733 92.653,256.164 92.972 C 256.447 93.181,256.807 93.331,256.964 93.304 C 257.422 93.227,258.146 93.804,257.835 93.998 C 257.632 94.124,257.626 94.193,257.800 94.367 C 257.974 94.541,258.044 94.534,258.177 94.332 C 258.297 94.149,258.319 94.211,258.260 94.565 C 258.215 94.841,258.284 95.195,258.423 95.394 C 258.630 95.689,258.667 95.698,258.667 95.454 C 258.667 95.296,258.592 95.167,258.500 95.167 C 258.408 95.167,258.333 95.087,258.333 94.990 C 258.333 94.893,258.414 94.864,258.514 94.925 C 258.623 94.993,258.674 94.915,258.643 94.727 C 258.615 94.556,258.650 94.323,258.722 94.208 C 258.807 94.073,258.756 94.000,258.574 94.000 C 258.373 94.000,258.320 93.903,258.385 93.654 C 258.447 93.418,258.408 93.333,258.266 93.388 C 258.150 93.432,258.056 93.367,258.056 93.243 C 258.056 92.996,258.556 93.186,258.756 93.509 C 258.827 93.625,258.955 93.611,259.140 93.466 C 259.386 93.274,259.392 93.282,259.194 93.534 C 259.072 93.691,259.015 93.889,259.068 93.975 C 259.121 94.061,259.054 94.174,258.919 94.226 C 258.779 94.280,258.715 94.432,258.770 94.576 C 258.824 94.717,258.937 94.789,259.020 94.738 C 259.104 94.686,259.122 94.562,259.060 94.463 C 258.994 94.355,259.026 94.330,259.141 94.401 C 259.247 94.466,259.333 94.431,259.333 94.323 C 259.333 94.177,259.391 94.174,259.557 94.311 C 259.680 94.414,259.830 94.448,259.889 94.388 C 260.058 94.219,260.689 94.869,260.594 95.114 C 260.548 95.235,260.583 95.343,260.672 95.354 C 260.761 95.366,260.927 95.389,261.042 95.406 C 261.156 95.423,261.350 95.362,261.473 95.269 C 261.643 95.141,261.683 95.178,261.640 95.424 C 261.577 95.786,262.537 95.810,262.965 95.458 C 263.126 95.326,263.323 95.419,263.740 95.823 C 264.250 96.318,264.452 96.909,264.073 96.796 C 263.987 96.771,263.936 96.691,263.960 96.619 C 264.040 96.381,263.091 95.673,262.833 95.777 C 262.696 95.832,262.453 95.873,262.294 95.866 C 262.027 95.855,262.023 95.900,262.251 96.445 C 262.440 96.897,262.448 97.016,262.284 96.953 C 262.151 96.902,262.057 97.019,262.037 97.259 C 262.006 97.639,262.725 98.333,263.151 98.333 C 263.251 98.333,263.333 98.563,263.333 98.843 C 263.333 99.124,263.265 99.311,263.182 99.260 C 263.099 99.208,263.070 99.016,263.118 98.833 C 263.172 98.628,263.123 98.500,262.992 98.500 C 262.874 98.500,262.822 98.544,262.875 98.597 C 263.070 98.792,262.447 99.330,262.233 99.153 C 262.092 99.036,261.991 99.051,261.905 99.200 C 261.836 99.319,261.842 99.360,261.918 99.291 C 261.994 99.222,262.199 99.295,262.374 99.453 C 262.624 99.680,262.680 99.689,262.637 99.495 C 262.608 99.360,262.696 99.250,262.833 99.250 C 262.979 99.250,263.083 99.401,263.083 99.611 C 263.083 99.810,263.151 100.035,263.233 100.111 C 263.320 100.192,263.344 100.093,263.290 99.875 C 263.239 99.669,263.266 99.500,263.349 99.500 C 263.432 99.500,263.500 99.563,263.500 99.639 C 263.500 99.715,263.612 99.778,263.750 99.778 C 263.887 99.778,264.000 99.673,264.000 99.546 C 264.000 99.418,263.938 99.352,263.861 99.399 C 263.785 99.447,263.722 99.373,263.722 99.235 C 263.722 98.872,264.123 99.309,264.195 99.750 C 264.237 100.004,264.171 100.070,263.917 100.026 C 263.733 99.994,263.633 100.018,263.693 100.080 C 263.753 100.141,264.053 100.221,264.359 100.257 C 264.666 100.294,264.822 100.282,264.707 100.231 C 264.592 100.180,264.540 100.069,264.592 99.985 C 264.648 99.895,264.819 99.903,265.011 100.006 C 265.274 100.146,265.295 100.222,265.126 100.405 C 265.011 100.530,264.849 100.590,264.766 100.540 C 264.683 100.490,264.669 100.535,264.734 100.641 C 264.918 100.939,265.090 100.872,265.340 100.404 C 265.545 100.021,265.582 100.007,265.679 100.279 C 265.739 100.446,265.704 100.647,265.602 100.724 C 265.488 100.811,265.526 100.830,265.704 100.773 C 265.861 100.722,266.096 100.787,266.225 100.916 C 266.355 101.045,266.513 101.098,266.577 101.034 C 266.642 100.969,266.669 101.016,266.639 101.138 C 266.608 101.260,266.771 101.475,267.000 101.615 C 267.330 101.817,267.356 101.819,267.125 101.625 C 266.965 101.490,266.833 101.284,266.833 101.167 C 266.833 101.051,266.988 101.152,267.177 101.393 C 267.367 101.633,267.475 101.906,267.418 101.998 C 267.360 102.091,267.398 102.167,267.500 102.167 C 267.602 102.167,267.643 102.236,267.590 102.322 C 267.538 102.407,267.582 102.531,267.690 102.598 C 267.812 102.673,267.840 102.646,267.766 102.526 C 267.695 102.412,267.753 102.333,267.907 102.333 C 268.050 102.333,268.158 102.390,268.147 102.458 C 268.090 102.818,268.194 102.862,268.417 102.574 C 268.626 102.304,268.651 102.299,268.566 102.542 C 268.466 102.829,268.609 102.902,269.167 102.849 C 269.354 102.831,269.344 102.870,269.124 103.005 C 268.963 103.104,268.738 103.129,268.624 103.060 C 268.463 102.964,268.460 102.990,268.611 103.176 C 268.718 103.309,268.818 103.492,268.833 103.583 C 268.848 103.675,268.904 103.787,268.957 103.833 C 269.010 103.879,269.012 103.842,268.961 103.750 C 268.728 103.330,269.322 103.161,269.591 103.571 C 269.738 103.796,269.947 103.959,270.054 103.934 C 270.162 103.909,270.198 103.918,270.134 103.955 C 270.071 103.991,270.059 104.126,270.108 104.254 C 270.171 104.418,270.094 104.467,269.849 104.420 C 269.410 104.335,269.386 104.598,269.822 104.712 C 270.006 104.760,270.289 104.661,270.482 104.481 C 270.917 104.076,270.913 104.074,270.936 104.696 C 270.953 105.158,270.929 105.189,270.747 104.941 C 270.561 104.687,270.529 104.685,270.438 104.920 C 270.383 105.065,270.393 105.150,270.460 105.109 C 270.528 105.068,270.718 105.214,270.883 105.434 C 271.047 105.654,271.104 105.833,271.008 105.833 C 270.912 105.833,270.833 105.918,270.833 106.020 C 270.833 106.157,270.893 106.158,271.054 106.024 C 271.216 105.890,271.334 105.896,271.495 106.046 C 271.631 106.172,271.675 106.178,271.610 106.061 C 271.489 105.844,272.120 105.624,272.252 105.836 C 272.299 105.912,272.205 106.009,272.044 106.051 C 271.852 106.101,271.902 106.135,272.188 106.147 C 272.429 106.158,272.719 106.279,272.833 106.417 C 272.947 106.554,273.136 106.667,273.253 106.667 C 273.369 106.667,273.514 106.796,273.574 106.954 C 273.640 107.123,273.732 107.172,273.801 107.073 C 274.095 106.649,275.009 106.877,274.729 107.305 C 274.584 107.527,274.542 107.661,274.635 107.603 C 274.728 107.545,274.836 107.555,274.875 107.624 C 274.914 107.693,274.923 107.659,274.897 107.547 C 274.870 107.435,274.920 107.300,275.007 107.246 C 275.154 107.155,275.240 107.389,275.182 107.721 C 275.169 107.796,275.254 107.797,275.371 107.723 C 275.488 107.649,275.633 107.587,275.694 107.586 C 275.756 107.584,275.868 107.515,275.944 107.432 C 276.025 107.343,275.996 107.330,275.875 107.400 C 275.760 107.466,275.667 107.434,275.667 107.329 C 275.667 107.225,275.760 107.173,275.875 107.215 C 275.990 107.257,276.059 107.392,276.030 107.514 C 276.001 107.637,276.109 107.834,276.270 107.952 C 276.621 108.208,276.442 108.237,275.993 107.996 C 275.736 107.859,275.693 107.875,275.772 108.079 C 275.895 108.400,276.480 108.412,276.602 108.096 C 276.678 107.897,276.744 107.903,277.013 108.133 C 277.397 108.462,277.424 108.667,277.083 108.667 C 276.946 108.667,276.833 108.771,276.833 108.899 C 276.833 109.154,277.288 109.407,277.642 109.348 C 277.780 109.325,277.818 109.389,277.741 109.515 C 277.670 109.629,277.684 109.675,277.774 109.620 C 277.862 109.566,278.031 109.678,278.150 109.868 C 278.336 110.166,278.330 110.201,278.111 110.117 C 277.917 110.043,277.877 110.107,277.941 110.385 C 277.988 110.586,278.033 110.833,278.041 110.935 C 278.049 111.037,278.212 111.088,278.403 111.048 C 278.711 110.984,278.720 111.000,278.486 111.196 C 278.246 111.396,278.252 111.448,278.551 111.750 C 278.881 112.083,278.881 112.083,278.799 111.745 C 278.754 111.559,278.817 111.314,278.938 111.200 C 279.120 111.030,279.142 111.083,279.059 111.497 C 278.992 111.830,279.025 112.000,279.156 112.000 C 279.264 112.000,279.299 111.913,279.234 111.808 C 279.160 111.688,279.188 111.660,279.308 111.734 C 279.446 111.819,279.451 111.946,279.328 112.177 C 279.181 112.452,279.212 112.502,279.536 112.517 C 279.906 112.533,279.905 112.537,279.500 112.658 L 279.083 112.782 279.500 112.854 C 279.759 112.898,279.896 113.017,279.863 113.171 C 279.818 113.379,279.843 113.382,280.030 113.188 C 280.195 113.015,280.200 112.940,280.051 112.885 C 279.942 112.845,279.893 112.704,279.944 112.573 C 280.000 112.426,279.932 112.333,279.768 112.333 C 279.493 112.333,279.415 112.141,279.610 111.946 C 279.670 111.886,279.839 111.927,279.985 112.038 C 280.131 112.148,280.194 112.173,280.126 112.093 C 280.058 112.013,280.080 111.855,280.174 111.741 C 280.294 111.596,280.266 111.456,280.077 111.268 C 279.930 111.120,279.892 111.000,279.993 111.000 C 280.094 111.000,280.224 111.123,280.282 111.273 C 280.377 111.520,280.408 111.517,280.610 111.242 C 280.733 111.074,280.833 111.001,280.833 111.080 C 280.833 111.159,280.718 111.352,280.576 111.508 C 280.344 111.764,280.345 111.802,280.585 111.894 C 280.731 111.950,280.807 111.926,280.754 111.840 C 280.701 111.754,280.809 111.602,280.995 111.502 C 281.253 111.364,281.334 111.372,281.336 111.536 C 281.338 111.688,281.388 111.677,281.510 111.500 C 281.650 111.294,281.672 111.309,281.632 111.583 C 281.593 111.848,281.664 111.905,281.977 111.861 C 282.202 111.830,282.327 111.876,282.269 111.969 C 282.214 112.058,282.287 112.177,282.431 112.233 C 282.803 112.375,282.833 112.364,282.833 112.083 C 282.833 111.946,282.907 111.833,282.996 111.833 C 283.096 111.833,283.086 111.996,282.970 112.249 C 282.830 112.556,282.726 112.619,282.572 112.491 C 282.424 112.368,282.324 112.380,282.230 112.532 C 282.135 112.687,282.072 112.643,282.007 112.378 C 281.917 112.009,281.916 112.009,281.724 112.421 C 281.590 112.708,281.585 112.866,281.708 112.942 C 281.820 113.011,281.835 112.971,281.748 112.831 C 281.650 112.671,281.688 112.639,281.884 112.714 C 282.034 112.772,282.201 112.746,282.255 112.658 C 282.404 112.418,282.876 112.960,282.734 113.207 C 282.668 113.322,282.672 113.363,282.744 113.298 C 282.817 113.233,283.090 113.291,283.353 113.427 C 283.615 113.562,283.849 113.667,283.873 113.659 C 284.045 113.603,284.479 113.899,284.404 114.020 C 284.353 114.104,284.222 114.122,284.113 114.062 C 283.963 113.977,283.963 114.001,284.112 114.163 C 284.219 114.279,284.268 114.477,284.219 114.604 C 284.171 114.730,284.218 114.833,284.325 114.833 C 284.432 114.833,284.473 114.758,284.416 114.665 C 284.359 114.573,284.429 114.453,284.572 114.398 C 284.715 114.343,284.781 114.213,284.720 114.108 C 284.659 114.003,284.767 114.055,284.960 114.224 C 285.329 114.547,285.284 115.081,284.900 114.934 C 284.778 114.886,284.637 114.913,284.588 114.993 C 284.539 115.072,284.686 115.117,284.916 115.092 C 285.145 115.066,285.333 115.115,285.333 115.199 C 285.333 115.284,285.393 115.316,285.465 115.271 C 285.538 115.226,285.609 115.340,285.623 115.524 C 285.644 115.809,285.609 115.826,285.388 115.643 C 285.166 115.459,285.139 115.475,285.199 115.755 C 285.238 115.936,285.378 116.060,285.510 116.031 C 285.690 115.991,285.678 116.051,285.461 116.272 C 285.186 116.552,285.202 116.580,285.794 116.861 C 286.137 117.023,286.285 117.158,286.125 117.161 C 285.825 117.167,285.702 117.500,286.000 117.500 C 286.092 117.500,286.158 117.556,286.147 117.625 C 286.073 118.093,286.196 119.000,286.333 119.000 C 286.553 119.000,286.549 117.886,286.329 117.776 C 286.235 117.730,286.254 117.711,286.371 117.734 C 286.488 117.757,286.607 118.051,286.635 118.388 L 286.687 119.000 288.093 119.000 L 289.500 119.000 289.500 118.417 C 289.500 117.843,289.544 117.804,290.235 117.767 C 290.411 117.758,290.591 117.638,290.637 117.500 C 290.709 117.284,290.682 117.282,290.440 117.482 C 290.191 117.687,290.173 117.678,290.277 117.399 C 290.377 117.133,290.356 117.115,290.142 117.289 C 289.936 117.456,289.889 117.447,289.889 117.236 C 289.889 117.054,289.996 117.005,290.254 117.069 C 290.576 117.150,290.609 117.107,290.533 116.710 C 290.459 116.323,290.431 116.304,290.336 116.577 C 290.179 117.023,290.013 116.676,290.118 116.124 C 290.166 115.872,290.309 115.667,290.436 115.667 C 290.631 115.667,290.672 107.319,290.708 60.750 C 290.734 27.217,290.690 5.833,290.596 5.833 C 290.511 5.833,290.624 5.633,290.846 5.388 L 291.250 4.943 290.838 5.222 C 290.317 5.574,289.970 5.578,290.417 5.227 C 290.747 4.968,290.747 4.966,290.395 5.071 C 290.159 5.141,290.007 5.093,289.944 4.927 C 289.817 4.597,290.163 4.392,290.349 4.687 C 290.429 4.813,290.496 4.838,290.497 4.742 C 290.500 4.536,290.159 4.167,289.967 4.167 C 289.893 4.167,289.842 4.223,289.853 4.292 C 289.911 4.661,289.784 4.655,289.319 4.264 C 289.036 4.026,288.728 3.879,288.634 3.937 C 288.540 3.995,288.398 3.939,288.320 3.813 C 288.200 3.621,288.119 3.619,287.819 3.805 C 287.588 3.949,287.403 3.970,287.299 3.866 C 287.195 3.762,287.211 3.659,287.345 3.576 C 287.478 3.494,287.509 3.517,287.433 3.641 C 287.367 3.747,287.393 3.833,287.490 3.833 C 287.793 3.833,287.683 3.521,287.311 3.321 C 287.054 3.184,287.012 3.095,287.162 3.003 C 287.309 2.912,287.316 2.842,287.184 2.761 C 287.083 2.698,287.000 2.726,287.000 2.823 M289.125 4.292 C 289.102 4.360,289.148 4.431,289.227 4.449 C 289.355 4.477,289.833 5.261,289.833 5.442 C 289.833 5.481,289.665 5.351,289.458 5.153 C 289.252 4.955,288.858 4.653,288.583 4.481 L 288.083 4.168 288.625 4.167 C 288.923 4.167,289.148 4.223,289.125 4.292 M287.083 4.500 C 287.015 4.611,257.009 4.667,197.607 4.667 C 126.344 4.667,108.186 4.709,108.000 4.875 C 107.801 5.052,107.799 5.040,107.987 4.792 C 108.196 4.515,112.708 4.498,197.645 4.458 C 246.836 4.435,287.107 4.398,287.135 4.375 C 287.163 4.352,287.140 4.408,287.083 4.500 M287.917 4.707 C 287.992 4.639,288.010 4.661,287.956 4.755 C 287.902 4.850,288.264 5.140,288.760 5.400 C 289.257 5.659,289.626 5.931,289.582 6.003 C 289.537 6.074,289.500 30.802,289.500 60.953 C 289.498 107.086,289.462 115.822,289.270 116.084 C 289.056 116.377,289.042 116.368,289.042 115.948 C 289.042 115.702,289.107 115.500,289.188 115.500 C 289.366 115.500,289.386 6.052,289.208 5.942 C 289.140 5.900,289.084 30.064,289.084 59.641 L 289.085 113.417 289.000 59.667 L 288.916 5.917 288.833 59.667 L 288.751 113.417 288.708 59.767 C 288.678 21.412,288.718 6.056,288.847 5.900 C 288.986 5.733,288.900 5.629,288.472 5.450 C 288.167 5.323,287.814 5.095,287.689 4.944 C 287.564 4.794,287.384 4.719,287.289 4.778 C 287.185 4.841,287.165 4.804,287.239 4.684 C 287.326 4.544,287.425 4.535,287.572 4.657 C 287.687 4.752,287.842 4.775,287.917 4.707 M105.508 5.152 C 105.379 5.393,105.376 5.500,105.499 5.500 C 105.701 5.500,105.921 5.033,105.784 4.895 C 105.734 4.845,105.610 4.961,105.508 5.152 M104.333 5.677 C 104.333 5.774,104.408 5.807,104.500 5.750 C 104.592 5.693,104.667 5.726,104.667 5.823 C 104.667 5.921,104.779 6.000,104.917 6.000 C 105.054 6.000,105.167 5.921,105.167 5.823 C 105.167 5.726,105.097 5.690,105.012 5.743 C 104.926 5.796,104.809 5.763,104.752 5.669 C 104.614 5.447,104.333 5.452,104.333 5.677 M287.083 5.667 C 287.015 5.778,257.057 5.819,197.615 5.792 L 108.250 5.750 197.667 5.667 C 246.846 5.621,287.107 5.564,287.135 5.541 C 287.163 5.519,287.140 5.575,287.083 5.667 M104.415 46.417 C 104.415 68.692,104.435 77.779,104.458 66.612 C 104.482 55.444,104.482 37.219,104.458 26.112 C 104.435 15.004,104.415 24.142,104.415 46.417 M287.542 113.483 C 287.726 113.720,287.717 113.724,287.458 113.521 C 287.181 113.304,287.169 110.566,287.208 59.605 L 287.249 5.917 287.292 59.567 C 287.325 102.146,287.377 113.272,287.542 113.483 M106.980 87.484 C 107.106 87.564,107.158 87.713,107.095 87.815 C 106.948 88.052,107.210 88.056,107.446 87.821 C 107.572 87.694,107.572 87.811,107.444 88.219 C 107.272 88.769,107.247 88.784,106.889 88.550 C 106.683 88.415,106.442 88.350,106.352 88.405 C 106.263 88.460,106.143 88.429,106.085 88.336 C 106.027 88.243,106.064 88.167,106.167 88.167 C 106.269 88.167,106.299 88.079,106.232 87.971 C 106.166 87.864,106.291 87.901,106.509 88.055 C 106.999 88.397,107.356 88.428,106.907 88.089 C 106.658 87.901,106.641 87.841,106.833 87.833 C 107.025 87.825,107.008 87.766,106.760 87.578 C 106.415 87.317,106.595 87.240,106.980 87.484 M252.852 87.973 C 253.662 88.195,254.667 89.024,254.667 89.470 C 254.667 89.654,254.614 89.681,254.491 89.558 C 254.344 89.410,253.500 89.437,253.500 89.589 C 253.500 89.829,253.732 90.146,253.854 90.071 C 253.937 90.019,253.955 89.896,253.894 89.796 C 253.826 89.687,253.860 89.663,253.977 89.736 C 254.084 89.802,254.124 89.934,254.065 90.029 C 253.996 90.141,254.099 90.163,254.354 90.093 C 254.736 89.987,254.739 89.992,254.426 90.241 C 254.249 90.384,254.061 90.441,254.010 90.369 C 253.959 90.298,253.785 90.241,253.625 90.244 C 253.465 90.247,253.333 90.194,253.333 90.125 C 253.333 90.056,253.333 89.850,253.333 89.667 C 253.333 89.415,253.446 89.332,253.792 89.328 L 254.250 89.323 253.791 88.919 C 252.783 88.032,257.377 88.087,180.259 88.041 C 123.160 88.007,108.408 87.956,108.304 87.791 C 108.199 87.625,108.171 87.626,108.169 87.792 C 108.168 87.906,108.082 88.000,107.980 88.000 C 107.849 88.000,107.845 87.937,107.965 87.792 C 108.221 87.484,251.725 87.663,252.852 87.973 M106.058 89.334 C 106.088 89.609,106.174 89.891,106.250 89.959 C 106.325 90.027,106.333 89.990,106.267 89.875 C 106.117 89.615,106.251 89.611,106.719 89.861 C 107.059 90.042,107.067 90.034,106.833 89.748 C 106.602 89.466,106.612 89.450,106.959 89.539 C 107.185 89.597,107.293 89.570,107.232 89.471 C 107.176 89.380,106.956 89.350,106.742 89.404 C 106.528 89.457,106.307 89.426,106.250 89.334 C 106.194 89.242,106.231 89.167,106.333 89.167 C 106.436 89.167,106.473 89.092,106.417 89.000 C 106.207 88.661,106.005 88.849,106.058 89.334 M108.056 88.958 C 108.098 89.027,108.033 89.175,107.911 89.287 C 107.738 89.447,107.676 89.447,107.620 89.287 C 107.580 89.175,107.547 89.285,107.545 89.532 C 107.542 89.938,107.922 90.300,108.131 90.091 C 108.177 90.045,108.087 89.959,107.931 89.899 C 107.677 89.802,107.685 89.751,108.020 89.395 L 108.391 89.000 179.914 89.000 C 243.287 89.000,251.473 89.029,251.760 89.250 C 251.998 89.435,252.011 89.476,251.809 89.406 C 251.657 89.353,251.477 89.409,251.407 89.530 C 251.337 89.651,251.339 89.696,251.412 89.631 C 251.622 89.441,252.233 89.834,252.035 90.032 C 251.922 90.145,251.973 90.306,252.189 90.523 C 252.367 90.700,252.467 90.918,252.413 91.006 C 252.358 91.094,252.395 91.167,252.493 91.167 C 252.604 91.167,252.631 90.998,252.562 90.725 C 252.484 90.414,252.508 90.319,252.642 90.402 C 252.758 90.473,252.833 90.406,252.833 90.232 C 252.833 90.074,252.784 89.994,252.724 90.054 C 252.503 90.275,252.149 89.805,252.352 89.561 C 252.982 88.801,256.163 88.833,179.662 88.833 C 140.237 88.833,108.014 88.890,108.056 88.958 M105.152 89.472 C 105.342 89.828,105.833 90.266,105.833 90.080 C 105.833 90.011,105.702 89.854,105.542 89.732 C 105.348 89.585,105.323 89.509,105.468 89.505 C 105.769 89.498,105.540 89.167,105.234 89.167 C 105.047 89.167,105.028 89.240,105.152 89.472 M107.667 90.417 C 107.667 90.553,107.792 90.603,108.000 90.548 C 108.183 90.500,108.333 90.441,108.333 90.417 C 108.333 90.392,108.183 90.333,108.000 90.285 C 107.792 90.231,107.667 90.280,107.667 90.417 M254.215 91.354 L 254.583 91.708 254.218 91.520 C 254.016 91.416,253.806 91.257,253.749 91.166 C 253.573 90.880,253.831 90.985,254.215 91.354 M257.764 92.958 C 257.662 93.061,257.015 92.613,256.925 92.377 C 256.879 92.260,257.065 92.328,257.336 92.528 C 257.607 92.729,257.800 92.922,257.764 92.958 M257.221 93.542 C 257.277 93.702,257.250 93.833,257.161 93.833 C 257.073 93.833,257.000 93.758,257.000 93.667 C 257.000 93.575,256.927 93.500,256.839 93.500 C 256.750 93.500,256.725 93.626,256.784 93.779 C 256.865 93.990,256.824 94.032,256.612 93.951 C 256.459 93.892,256.333 93.914,256.333 94.000 C 256.333 94.201,257.483 94.162,257.610 93.957 C 257.663 93.871,257.574 93.677,257.413 93.526 C 257.139 93.269,257.126 93.270,257.221 93.542 M261.582 94.974 C 261.535 95.021,261.343 94.894,261.155 94.693 C 260.967 94.491,260.743 94.370,260.657 94.423 C 260.571 94.476,260.500 94.453,260.500 94.371 C 260.500 94.023,260.728 94.052,261.182 94.457 C 261.449 94.694,261.629 94.927,261.582 94.974 M259.058 94.861 C 258.800 95.146,258.801 95.167,259.067 95.167 C 259.224 95.167,259.313 95.232,259.264 95.311 C 259.214 95.391,259.435 95.338,259.754 95.193 C 260.287 94.952,260.510 94.686,260.208 94.653 C 260.140 94.645,259.915 94.620,259.709 94.597 C 259.503 94.574,259.210 94.693,259.058 94.861 M262.456 94.902 C 262.649 95.124,262.767 95.344,262.719 95.392 C 262.630 95.481,261.833 94.759,261.833 94.591 C 261.833 94.379,262.131 94.528,262.456 94.902 M261.035 95.978 C 260.934 96.041,260.904 96.178,260.968 96.282 C 261.054 96.421,261.164 96.414,261.381 96.256 C 261.709 96.016,261.389 95.759,261.035 95.978 M262.738 96.519 C 262.683 96.608,262.729 96.790,262.839 96.924 C 262.950 97.057,262.985 97.167,262.917 97.167 C 262.848 97.167,262.880 97.272,262.987 97.400 C 263.136 97.580,263.131 97.654,262.965 97.721 C 262.828 97.776,262.856 97.812,263.042 97.820 C 263.202 97.827,263.333 97.908,263.333 98.000 C 263.333 98.266,263.076 98.194,262.754 97.837 C 262.590 97.656,262.390 97.548,262.311 97.597 C 262.076 97.742,262.147 97.391,262.393 97.186 C 262.528 97.075,262.586 96.819,262.536 96.558 C 262.477 96.250,262.510 96.153,262.645 96.237 C 262.752 96.303,262.794 96.429,262.738 96.519 M265.154 96.735 C 265.304 96.915,265.303 96.999,265.149 97.094 C 265.026 97.170,264.992 97.148,265.060 97.037 C 265.122 96.938,265.087 96.804,264.984 96.740 C 264.881 96.676,264.731 96.727,264.651 96.854 C 264.571 96.980,264.504 97.002,264.503 96.903 C 264.497 96.480,264.864 96.385,265.154 96.735 M260.333 97.313 C 260.333 97.416,260.390 97.510,260.458 97.521 C 261.013 97.616,261.310 97.598,261.234 97.474 C 261.184 97.394,261.071 97.373,260.981 97.428 C 260.892 97.484,260.710 97.438,260.576 97.327 C 260.405 97.185,260.333 97.181,260.333 97.313 M266.345 97.409 C 266.427 97.359,266.646 97.564,266.830 97.867 C 267.235 98.531,267.265 98.918,266.866 98.339 C 266.711 98.114,266.452 97.816,266.292 97.677 C 266.131 97.539,266.006 97.349,266.013 97.255 C 266.020 97.160,266.064 97.178,266.111 97.293 C 266.157 97.408,266.263 97.460,266.345 97.409 M263.946 97.617 C 264.028 97.566,264.111 97.706,264.129 97.929 C 264.148 98.151,264.087 98.333,263.994 98.333 C 263.902 98.333,263.949 98.521,264.099 98.750 C 264.481 99.333,264.307 99.271,263.858 98.664 C 263.654 98.388,263.574 98.182,263.681 98.206 C 263.788 98.230,263.909 98.156,263.951 98.042 C 263.993 97.927,263.909 97.833,263.764 97.833 C 263.619 97.833,263.501 97.702,263.503 97.542 C 263.505 97.311,263.536 97.298,263.651 97.480 C 263.731 97.606,263.864 97.668,263.946 97.617 M261.952 98.103 C 261.855 98.200,262.217 98.667,262.389 98.667 C 262.433 98.667,262.430 98.517,262.382 98.333 C 262.293 97.996,262.141 97.915,261.952 98.103 M267.458 99.021 C 267.435 99.124,267.521 99.246,267.648 99.292 C 267.803 99.349,267.836 99.306,267.747 99.163 C 267.657 99.017,267.681 98.989,267.822 99.076 C 267.966 99.165,267.976 99.257,267.855 99.378 C 267.651 99.582,267.113 99.222,267.262 98.981 C 267.390 98.773,267.508 98.797,267.458 99.021 M265.667 99.510 C 265.667 99.737,265.139 99.834,264.861 99.659 C 264.637 99.518,264.659 99.505,264.979 99.593 C 265.211 99.657,265.335 99.637,265.278 99.546 C 265.225 99.459,265.291 99.389,265.424 99.389 C 265.557 99.389,265.667 99.443,265.667 99.510 M269.455 99.958 C 269.985 100.739,270.170 101.278,269.908 101.278 C 269.783 101.278,269.716 101.222,269.759 101.153 C 269.879 100.957,269.548 100.215,269.173 99.840 C 268.986 99.653,268.903 99.500,268.989 99.500 C 269.074 99.500,269.284 99.706,269.455 99.958 M266.881 100.283 C 266.816 100.451,266.844 100.513,266.953 100.446 C 267.050 100.386,267.222 100.449,267.335 100.585 C 267.478 100.757,267.484 100.833,267.354 100.833 C 267.251 100.833,267.167 100.758,267.167 100.667 C 267.167 100.575,267.075 100.519,266.962 100.542 C 266.850 100.565,266.731 100.406,266.698 100.190 C 266.662 99.948,266.705 99.838,266.812 99.904 C 266.907 99.962,266.938 100.133,266.881 100.283 M267.895 101.246 C 268.195 101.474,268.194 101.481,267.865 101.457 C 267.677 101.442,267.556 101.377,267.597 101.311 C 267.638 101.246,267.539 101.157,267.377 101.115 C 267.174 101.062,267.160 101.034,267.333 101.025 C 267.471 101.017,267.723 101.117,267.895 101.246 M270.155 102.769 C 270.405 102.918,270.700 103.182,270.809 103.357 C 270.991 103.647,270.979 103.656,270.670 103.464 C 270.485 103.348,270.333 103.192,270.333 103.117 C 270.333 103.042,270.247 103.034,270.141 103.099 C 270.022 103.173,269.994 103.145,270.067 103.026 C 270.137 102.913,270.083 102.833,269.936 102.833 C 269.799 102.833,269.640 102.758,269.583 102.667 C 269.434 102.426,269.633 102.461,270.155 102.769 M272.312 103.350 C 271.903 103.609,271.767 103.508,272.096 103.191 C 272.272 103.021,272.445 102.954,272.479 103.043 C 272.513 103.132,272.438 103.270,272.312 103.350 M272.070 104.333 C 272.134 104.333,272.132 104.240,272.066 104.125 C 272.001 104.010,272.011 103.975,272.089 104.046 C 272.311 104.249,272.326 104.667,272.110 104.664 C 271.796 104.660,271.585 104.440,271.554 104.083 C 271.527 103.772,271.539 103.770,271.739 104.042 C 271.857 104.202,272.006 104.333,272.070 104.333 M274.571 104.095 C 274.860 104.384,274.922 104.574,274.678 104.424 C 274.593 104.371,274.476 104.404,274.418 104.497 C 274.361 104.590,274.406 104.667,274.518 104.667 C 274.630 104.667,274.683 104.706,274.635 104.754 C 274.587 104.802,274.422 104.793,274.269 104.734 C 274.009 104.635,274.009 104.613,274.273 104.421 C 274.536 104.228,274.533 104.201,274.236 104.029 C 274.060 103.927,274.005 103.841,274.113 103.838 C 274.221 103.836,274.427 103.951,274.571 104.095 M276.167 106.242 C 276.167 106.273,276.050 106.342,275.908 106.397 C 275.766 106.452,275.688 106.433,275.736 106.356 C 275.784 106.278,275.638 106.041,275.412 105.829 C 275.185 105.616,274.999 105.324,274.997 105.179 C 274.995 104.956,274.972 104.953,274.842 105.158 C 274.749 105.305,274.752 105.515,274.850 105.697 C 274.970 105.921,274.927 106.065,274.680 106.277 C 274.499 106.433,274.388 106.620,274.434 106.694 C 274.480 106.769,274.397 106.783,274.249 106.727 C 274.101 106.670,274.022 106.516,274.073 106.384 C 274.142 106.204,274.073 106.171,273.791 106.250 C 273.498 106.332,273.471 106.317,273.667 106.180 C 273.901 106.016,273.796 105.932,273.417 105.983 C 273.325 105.995,273.369 105.910,273.515 105.794 C 273.660 105.678,273.818 105.471,273.865 105.333 C 273.917 105.181,273.997 105.293,274.071 105.623 C 274.218 106.277,274.394 106.412,274.668 106.081 C 274.792 105.932,274.805 105.833,274.702 105.833 C 274.519 105.833,274.526 105.649,274.729 105.044 C 274.838 104.721,276.167 105.829,276.167 106.242 M271.440 105.250 C 271.378 105.412,271.445 105.501,271.630 105.503 C 271.863 105.505,271.873 105.533,271.681 105.654 C 271.407 105.828,270.919 105.432,271.083 105.168 C 271.246 104.903,271.546 104.972,271.440 105.250 M278.763 107.468 C 278.832 107.623,278.896 107.787,278.905 107.833 C 278.914 107.879,278.976 108.003,279.043 108.108 C 279.111 108.214,279.051 108.342,278.907 108.397 C 278.762 108.453,278.693 108.425,278.749 108.335 C 278.952 108.007,278.009 106.728,277.741 106.968 C 277.671 107.032,277.667 106.990,277.732 106.877 C 277.876 106.626,278.565 107.021,278.763 107.468 M272.761 106.983 C 272.710 107.065,272.781 107.175,272.918 107.227 C 273.069 107.285,273.167 107.227,273.167 107.078 C 273.167 106.809,272.906 106.747,272.761 106.983 M279.729 108.911 C 279.675 109.053,279.529 109.102,279.361 109.036 C 279.108 108.936,279.109 108.921,279.377 108.867 C 279.539 108.835,279.621 108.727,279.560 108.628 C 279.495 108.524,279.526 108.496,279.634 108.563 C 279.735 108.626,279.778 108.783,279.729 108.911 M277.620 108.951 C 277.382 109.189,277.302 109.199,277.126 109.010 C 276.955 108.825,276.969 108.803,277.203 108.885 C 277.360 108.940,277.534 108.914,277.588 108.826 C 277.642 108.738,277.735 108.667,277.796 108.667 C 277.856 108.667,277.777 108.795,277.620 108.951 M278.696 109.232 C 278.812 109.160,278.839 109.190,278.766 109.308 C 278.596 109.583,278.245 109.545,277.979 109.223 C 277.771 108.971,277.785 108.964,278.128 109.147 C 278.337 109.258,278.592 109.296,278.696 109.232 M284.167 111.707 C 284.167 111.800,284.056 111.782,283.917 111.667 C 283.779 111.553,283.667 111.384,283.667 111.293 C 283.667 111.200,283.777 111.218,283.917 111.333 C 284.054 111.447,284.167 111.616,284.167 111.707 M277.904 112.110 C 278.003 112.323,278.140 112.498,278.208 112.499 C 278.392 112.501,278.361 112.203,278.164 112.082 C 278.071 112.024,278.030 111.920,278.073 111.850 C 278.117 111.780,278.056 111.722,277.938 111.722 C 277.774 111.722,277.766 111.812,277.904 112.110 M280.886 111.958 C 280.882 112.469,281.398 112.672,281.569 112.226 C 281.661 111.988,281.638 111.983,281.396 112.183 C 281.148 112.390,281.131 112.374,281.237 112.040 C 281.322 111.775,281.288 111.667,281.122 111.667 C 280.994 111.667,280.888 111.798,280.886 111.958 M280.275 112.411 C 280.223 112.546,280.253 112.700,280.341 112.754 C 280.428 112.809,280.500 112.769,280.500 112.667 C 280.500 112.562,280.591 112.535,280.708 112.605 C 280.850 112.691,280.843 112.640,280.688 112.449 C 280.410 112.106,280.393 112.104,280.275 112.411 M283.831 112.698 C 283.832 112.579,283.916 112.532,284.018 112.594 C 284.148 112.675,284.141 112.746,283.991 112.839 C 283.720 113.006,283.303 112.850,283.438 112.631 C 283.502 112.529,283.597 112.551,283.685 112.691 C 283.799 112.871,283.829 112.872,283.831 112.698 M281.780 113.249 C 281.591 113.387,281.545 113.508,281.657 113.577 C 281.754 113.637,281.833 113.612,281.833 113.522 C 281.833 113.432,281.965 113.332,282.125 113.300 C 282.285 113.268,282.341 113.194,282.248 113.136 C 282.155 113.077,281.945 113.128,281.780 113.249 M282.833 113.632 C 282.833 113.699,282.981 113.845,283.160 113.957 C 283.430 114.126,283.472 114.121,283.398 113.927 C 283.301 113.675,282.833 113.430,282.833 113.632 M284.790 115.773 C 284.658 115.982,285.111 116.444,285.282 116.274 C 285.341 116.215,285.307 116.167,285.207 116.167 C 285.106 116.167,284.998 116.035,284.967 115.875 C 284.929 115.684,284.868 115.649,284.790 115.773 M290.714 116.059 C 290.803 116.325,291.111 116.369,291.111 116.116 C 291.111 115.991,291.009 115.889,290.884 115.889 C 290.759 115.889,290.683 115.965,290.714 116.059 M289.875 118.417 C 289.877 118.783,289.911 118.914,289.951 118.706 C 289.991 118.499,289.990 118.199,289.948 118.040 C 289.906 117.880,289.874 118.050,289.875 118.417 M290.875 118.417 C 290.877 118.783,290.911 118.914,290.951 118.706 C 290.991 118.499,290.990 118.199,290.948 118.040 C 290.906 117.880,290.874 118.050,290.875 118.417 " stroke="none" fill="#fcfcf4" fill-rule="evenodd"></path><path id="path1" d="M107.735 1.399 C 107.603 1.542,107.612 1.651,107.768 1.796 C 108.025 2.036,108.166 1.858,108.021 1.476 C 107.942 1.267,107.873 1.249,107.735 1.399 M287.511 1.385 C 287.505 1.551,287.432 1.644,287.349 1.593 C 287.118 1.450,108.165 1.399,108.308 1.541 C 108.377 1.610,148.671 1.666,197.850 1.667 C 266.317 1.668,287.314 1.714,287.465 1.865 C 287.750 2.150,287.866 1.945,287.681 1.483 C 287.559 1.177,287.519 1.154,287.511 1.385 M288.167 1.510 C 288.167 1.607,288.093 1.641,288.002 1.585 C 287.907 1.526,287.879 1.593,287.936 1.741 C 288.086 2.131,288.486 2.064,288.382 1.667 C 288.288 1.309,288.167 1.221,288.167 1.510 M288.622 1.458 C 288.471 1.753,288.510 2.667,288.674 2.667 C 288.772 2.667,288.800 2.581,288.736 2.477 C 288.671 2.372,288.788 2.160,288.999 2.001 C 289.285 1.785,289.326 1.682,289.164 1.581 C 289.014 1.489,288.989 1.514,289.081 1.663 C 289.170 1.806,289.137 1.849,288.982 1.792 C 288.854 1.746,288.769 1.624,288.792 1.521 C 288.839 1.310,288.721 1.267,288.622 1.458 M290.424 1.488 C 290.361 1.589,290.222 1.619,290.113 1.554 C 289.997 1.484,290.009 1.550,290.142 1.713 C 290.265 1.866,290.367 2.272,290.367 2.616 C 290.367 3.193,290.385 3.216,290.600 2.922 C 290.728 2.747,290.833 2.538,290.833 2.458 C 290.833 2.379,290.907 2.359,290.998 2.415 C 291.096 2.476,291.119 2.402,291.055 2.235 C 290.955 1.975,290.929 1.977,290.723 2.258 C 290.551 2.494,290.500 2.507,290.500 2.315 C 290.500 2.179,290.590 1.977,290.700 1.867 C 290.844 1.723,290.849 1.616,290.719 1.485 C 290.588 1.355,290.506 1.356,290.424 1.488 M105.661 1.583 C 105.643 1.675,105.618 1.863,105.606 2.000 C 105.593 2.137,105.471 2.252,105.333 2.254 C 104.935 2.261,104.636 2.514,104.732 2.762 C 104.780 2.888,104.691 3.066,104.535 3.157 C 104.378 3.248,104.339 3.325,104.448 3.328 C 104.558 3.331,104.694 3.257,104.752 3.164 C 104.905 2.916,105.206 3.158,105.097 3.442 C 105.043 3.582,105.076 3.639,105.175 3.578 C 105.270 3.520,105.301 3.328,105.246 3.153 C 105.164 2.894,105.218 2.841,105.530 2.875 C 105.858 2.910,105.910 2.849,105.871 2.471 C 105.845 2.226,105.914 1.970,106.024 1.902 C 106.159 1.818,106.190 1.866,106.119 2.051 C 105.986 2.397,106.322 2.619,106.516 2.313 C 106.596 2.187,106.662 2.008,106.662 1.917 C 106.662 1.825,106.598 1.850,106.521 1.972 C 106.408 2.150,106.359 2.140,106.274 1.920 C 106.216 1.769,106.100 1.688,106.015 1.740 C 105.931 1.793,105.824 1.741,105.777 1.626 C 105.731 1.511,105.678 1.492,105.661 1.583 M289.524 1.856 C 289.343 2.146,289.357 2.231,289.614 2.427 C 290.032 2.744,290.150 2.722,290.121 2.333 C 290.102 2.078,290.017 2.025,289.758 2.107 C 289.457 2.203,289.445 2.183,289.650 1.937 C 289.777 1.784,289.849 1.626,289.809 1.587 C 289.770 1.547,289.642 1.669,289.524 1.856 M106.940 1.917 C 107.053 2.212,107.163 2.224,107.500 1.982 C 107.711 1.830,107.705 1.817,107.458 1.896 C 107.298 1.947,107.167 1.917,107.167 1.828 C 107.167 1.739,107.094 1.667,107.005 1.667 C 106.916 1.667,106.887 1.779,106.940 1.917 M108.250 2.167 C 108.181 2.278,137.996 2.333,197.565 2.333 C 282.389 2.333,286.992 2.348,287.146 2.624 C 287.237 2.786,287.369 2.849,287.446 2.767 C 287.521 2.687,287.489 2.587,287.374 2.546 C 287.259 2.505,287.214 2.391,287.275 2.293 C 287.340 2.188,287.306 2.164,287.192 2.234 C 287.087 2.299,287.000 2.274,287.000 2.177 C 287.000 1.936,108.398 1.926,108.250 2.167 M105.667 2.577 C 105.667 2.672,105.489 2.750,105.271 2.750 C 105.054 2.750,104.906 2.672,104.942 2.577 C 104.978 2.482,105.156 2.405,105.337 2.405 C 105.519 2.405,105.667 2.482,105.667 2.577 M290.880 2.875 C 290.514 3.348,290.421 3.595,290.692 3.376 C 290.832 3.263,290.993 3.215,291.048 3.270 C 291.103 3.326,291.137 3.213,291.122 3.019 C 291.091 2.606,291.089 2.604,290.880 2.875 M287.233 3.194 C 287.186 3.271,287.286 3.333,287.457 3.333 C 287.627 3.333,287.865 3.427,287.986 3.542 C 288.168 3.714,288.169 3.689,287.997 3.403 C 287.784 3.050,287.389 2.942,287.233 3.194 M288.583 3.167 C 289.082 3.381,289.498 3.381,289.167 3.167 C 289.029 3.078,288.767 3.009,288.583 3.014 L 288.250 3.023 288.583 3.167 M288.346 3.454 C 288.339 3.566,288.558 3.774,288.833 3.917 C 289.273 4.144,289.333 4.145,289.333 3.926 C 289.333 3.773,289.237 3.714,289.083 3.773 C 288.946 3.826,288.833 3.782,288.833 3.675 C 288.833 3.568,288.765 3.523,288.681 3.575 C 288.597 3.626,288.490 3.575,288.444 3.459 C 288.380 3.300,288.357 3.299,288.346 3.454 M291.000 3.750 C 291.114 3.887,291.282 4.000,291.374 4.000 C 291.467 4.000,291.449 3.889,291.333 3.750 C 291.219 3.612,291.051 3.500,290.959 3.500 C 290.866 3.500,290.884 3.611,291.000 3.750 M104.220 4.083 C 104.321 4.298,103.909 4.683,103.741 4.532 C 103.671 4.468,103.667 4.510,103.733 4.624 C 103.798 4.738,104.016 4.917,104.218 5.022 C 104.419 5.126,104.528 5.152,104.460 5.080 C 104.392 5.007,104.409 4.859,104.499 4.752 C 104.608 4.620,104.576 4.451,104.401 4.236 C 104.259 4.061,104.177 3.992,104.220 4.083 M288.583 4.481 C 288.858 4.653,289.252 4.955,289.458 5.153 C 289.854 5.533,289.965 5.426,289.620 4.998 C 289.347 4.659,288.563 4.167,288.298 4.167 C 288.180 4.168,288.308 4.309,288.583 4.481 M197.645 4.458 C 112.708 4.498,108.196 4.515,107.987 4.792 C 107.799 5.040,107.801 5.052,108.000 4.875 C 108.186 4.709,126.344 4.667,197.607 4.667 C 257.009 4.667,287.015 4.611,287.083 4.500 C 287.140 4.408,287.163 4.352,287.135 4.375 C 287.107 4.398,246.836 4.435,197.645 4.458 M289.783 4.729 C 290.100 5.149,290.545 5.144,290.383 4.722 C 290.306 4.523,290.260 4.516,290.152 4.690 C 290.048 4.859,289.993 4.843,289.908 4.620 C 289.847 4.462,289.727 4.333,289.641 4.333 C 289.555 4.333,289.619 4.511,289.783 4.729 M287.239 4.684 C 287.165 4.804,287.185 4.841,287.289 4.778 C 287.384 4.719,287.564 4.794,287.689 4.944 C 287.814 5.095,288.167 5.323,288.472 5.450 C 288.900 5.629,288.986 5.733,288.847 5.900 C 288.718 6.056,288.678 21.412,288.708 59.767 L 288.751 113.417 288.833 59.667 L 288.916 5.917 289.000 59.667 L 289.085 113.417 289.084 59.641 C 289.084 30.064,289.140 5.900,289.208 5.942 C 289.386 6.052,289.366 115.500,289.188 115.500 C 289.107 115.500,289.042 115.702,289.042 115.948 C 289.042 116.368,289.056 116.377,289.270 116.084 C 289.462 115.822,289.498 107.086,289.500 60.953 C 289.500 30.802,289.537 6.074,289.582 6.003 C 289.626 5.931,289.257 5.659,288.760 5.400 C 288.264 5.140,287.902 4.850,287.956 4.755 C 288.010 4.661,287.992 4.639,287.917 4.707 C 287.842 4.775,287.687 4.752,287.572 4.657 C 287.425 4.535,287.326 4.544,287.239 4.684 M290.910 4.678 C 290.849 4.776,290.842 4.897,290.893 4.948 C 291.030 5.085,291.500 4.871,291.500 4.672 C 291.500 4.446,291.050 4.450,290.910 4.678 M104.021 5.725 C 103.710 6.099,103.675 87.367,103.986 87.111 C 104.186 86.945,104.190 86.975,104.012 87.310 C 103.727 87.845,104.042 88.196,104.445 87.793 C 104.702 87.536,104.695 87.524,104.344 87.615 C 103.998 87.706,103.985 87.686,104.185 87.365 C 104.361 87.084,104.451 87.055,104.650 87.217 C 104.829 87.362,104.865 87.363,104.781 87.222 C 104.716 87.115,104.646 68.778,104.625 46.472 L 104.585 5.917 104.500 46.417 L 104.416 86.917 104.348 46.417 C 104.311 24.142,104.284 5.823,104.289 5.708 C 104.298 5.444,104.252 5.446,104.021 5.725 M197.667 5.667 L 108.250 5.750 197.615 5.792 C 257.057 5.819,287.015 5.778,287.083 5.667 C 287.140 5.575,287.163 5.519,287.135 5.541 C 287.107 5.564,246.846 5.621,197.667 5.667 M290.958 38.042 C 290.981 55.848,291.019 80.589,291.042 93.021 L 291.083 115.625 290.701 115.625 C 290.245 115.625,290.243 115.627,290.104 116.208 C 290.038 116.480,290.063 116.667,290.163 116.667 C 290.257 116.667,290.333 116.520,290.333 116.340 C 290.333 116.107,290.512 115.960,290.958 115.826 L 291.583 115.639 291.541 60.718 C 291.505 13.133,291.467 5.810,291.260 5.890 C 291.129 5.940,290.998 5.910,290.969 5.824 C 290.940 5.737,290.935 20.235,290.958 38.042 M287.208 59.605 C 287.169 110.566,287.181 113.304,287.458 113.521 C 287.717 113.724,287.726 113.720,287.542 113.483 C 287.377 113.272,287.325 102.146,287.292 59.567 L 287.249 5.917 287.208 59.605 M291.292 88.111 C 291.268 103.221,291.249 90.908,291.249 60.750 C 291.249 30.592,291.268 18.229,291.292 33.278 C 291.315 48.327,291.315 73.002,291.292 88.111 M106.760 87.578 C 107.008 87.766,107.025 87.825,106.833 87.833 C 106.641 87.841,106.658 87.901,106.907 88.089 C 107.356 88.428,106.999 88.397,106.509 88.055 C 106.291 87.901,106.166 87.864,106.232 87.971 C 106.299 88.079,106.269 88.167,106.167 88.167 C 106.064 88.167,106.027 88.243,106.085 88.336 C 106.143 88.429,106.263 88.460,106.352 88.405 C 106.442 88.350,106.683 88.415,106.889 88.550 C 107.247 88.784,107.272 88.769,107.444 88.219 C 107.572 87.811,107.572 87.694,107.446 87.821 C 107.210 88.056,106.948 88.052,107.095 87.815 C 107.158 87.713,107.106 87.564,106.980 87.484 C 106.595 87.240,106.415 87.317,106.760 87.578 M107.965 87.792 C 107.845 87.937,107.849 88.000,107.980 88.000 C 108.082 88.000,108.168 87.906,108.169 87.792 C 108.171 87.626,108.199 87.625,108.304 87.791 C 108.408 87.956,123.160 88.007,180.259 88.041 C 257.377 88.087,252.783 88.032,253.791 88.919 L 254.250 89.323 253.792 89.328 C 253.446 89.332,253.333 89.415,253.333 89.667 C 253.333 89.850,253.333 90.056,253.333 90.125 C 253.333 90.194,253.465 90.247,253.625 90.244 C 253.785 90.241,253.959 90.298,254.010 90.369 C 254.061 90.441,254.249 90.384,254.426 90.241 C 254.739 89.992,254.736 89.987,254.354 90.093 C 254.099 90.163,253.996 90.141,254.065 90.029 C 254.124 89.934,254.084 89.802,253.977 89.736 C 253.860 89.663,253.826 89.687,253.894 89.796 C 253.955 89.896,253.937 90.019,253.854 90.071 C 253.732 90.146,253.500 89.829,253.500 89.589 C 253.500 89.437,254.344 89.410,254.491 89.558 C 254.614 89.681,254.667 89.654,254.667 89.470 C 254.667 89.024,253.662 88.195,252.852 87.973 C 251.725 87.663,108.221 87.484,107.965 87.792 M105.557 87.861 C 105.608 88.021,105.538 88.180,105.393 88.236 C 105.059 88.364,104.992 88.359,105.042 88.208 C 105.083 88.083,104.948 88.000,104.702 88.000 C 104.630 88.000,104.571 88.146,104.571 88.325 C 104.571 88.504,104.605 88.618,104.645 88.577 C 104.686 88.536,104.834 88.596,104.975 88.710 C 105.170 88.868,105.202 88.869,105.109 88.713 C 105.029 88.581,105.135 88.472,105.410 88.403 C 105.878 88.286,105.913 88.202,105.648 87.833 C 105.494 87.619,105.481 87.623,105.557 87.861 M103.855 88.391 C 103.711 88.564,103.761 88.656,104.077 88.800 C 104.413 88.953,104.468 88.944,104.391 88.744 C 104.340 88.611,104.231 88.543,104.149 88.594 C 104.067 88.645,104.000 88.613,104.000 88.524 C 104.000 88.434,104.094 88.323,104.208 88.277 C 104.339 88.224,104.347 88.188,104.229 88.180 C 104.125 88.173,103.957 88.267,103.855 88.391 M105.346 88.857 C 105.135 89.027,105.031 89.167,105.115 89.167 C 105.198 89.167,105.368 89.073,105.491 88.958 C 105.627 88.832,105.673 88.825,105.609 88.941 C 105.550 89.046,105.605 89.330,105.730 89.573 C 105.988 90.069,106.213 89.797,106.052 89.183 C 105.960 88.829,106.228 88.694,106.417 89.000 C 106.473 89.092,106.436 89.167,106.333 89.167 C 106.231 89.167,106.194 89.242,106.250 89.334 C 106.307 89.426,106.528 89.457,106.742 89.404 C 106.956 89.350,107.176 89.380,107.232 89.471 C 107.293 89.570,107.185 89.597,106.959 89.539 C 106.612 89.450,106.602 89.466,106.833 89.748 C 107.067 90.034,107.059 90.042,106.719 89.861 C 106.226 89.598,106.175 89.613,106.250 90.000 C 106.289 90.201,106.224 90.333,106.088 90.333 C 105.963 90.333,105.836 90.408,105.806 90.498 C 105.687 90.851,104.525 90.357,104.620 89.994 C 104.686 89.742,104.643 89.686,104.442 89.763 C 104.296 89.819,104.194 89.928,104.214 90.004 C 104.234 90.081,104.100 90.261,103.917 90.405 C 103.604 90.651,103.603 90.661,103.902 90.555 C 104.113 90.481,104.183 90.505,104.108 90.627 C 104.046 90.728,104.067 90.855,104.155 90.910 C 104.245 90.965,104.287 90.859,104.251 90.671 C 104.215 90.485,104.245 90.333,104.317 90.333 C 104.552 90.333,105.004 90.940,104.875 91.082 C 104.806 91.158,104.877 91.174,105.031 91.119 C 105.214 91.054,105.336 91.117,105.380 91.301 C 105.432 91.520,105.489 91.483,105.630 91.141 C 105.864 90.576,106.120 90.421,106.415 90.665 C 106.582 90.804,106.735 90.810,106.950 90.685 C 107.229 90.523,107.225 90.510,106.903 90.505 C 106.712 90.502,106.556 90.400,106.556 90.279 C 106.556 90.107,106.642 90.098,106.943 90.237 C 107.354 90.427,107.463 90.900,107.141 91.099 C 107.010 91.180,106.994 91.143,107.090 90.984 C 107.200 90.801,107.163 90.805,106.923 91.000 C 106.573 91.285,106.508 91.282,106.317 90.974 C 106.220 90.816,106.129 90.804,106.001 90.932 C 105.873 91.060,106.015 91.187,106.496 91.377 C 106.867 91.522,107.129 91.573,107.077 91.490 C 107.024 91.404,107.203 91.382,107.492 91.440 C 107.968 91.535,108.154 91.376,107.883 91.105 C 107.555 90.777,107.660 90.196,108.029 90.293 C 108.381 90.385,108.383 90.395,108.074 90.516 C 107.780 90.631,107.778 90.644,108.052 90.655 C 108.292 90.664,108.337 90.769,108.274 91.167 L 108.196 91.668 180.014 91.666 C 224.284 91.665,251.833 91.604,251.833 91.508 C 251.833 91.423,251.758 91.307,251.667 91.250 C 251.575 91.193,251.500 91.241,251.500 91.357 C 251.500 91.518,251.455 91.521,251.303 91.369 C 251.056 91.122,251.135 91.043,251.733 90.934 C 252.370 90.819,252.474 90.682,252.123 90.425 C 251.872 90.242,251.864 90.182,252.067 90.014 C 252.231 89.877,252.337 89.871,252.413 89.995 C 252.474 90.092,252.593 90.129,252.678 90.076 C 252.764 90.023,252.833 90.102,252.833 90.250 C 252.833 90.398,252.758 90.473,252.667 90.417 C 252.449 90.282,252.453 90.602,252.675 91.016 C 252.771 91.195,252.925 91.296,253.016 91.240 C 253.124 91.174,253.114 91.053,252.988 90.902 C 252.832 90.715,252.852 90.667,253.082 90.667 C 253.302 90.667,253.353 90.768,253.293 91.083 C 253.249 91.313,253.277 91.500,253.356 91.500 C 253.435 91.500,253.506 91.406,253.513 91.292 C 253.520 91.177,253.550 90.959,253.579 90.807 C 253.611 90.644,253.499 90.495,253.310 90.446 C 253.056 90.379,253.010 90.269,253.095 89.931 C 253.165 89.652,253.134 89.500,253.008 89.500 C 252.901 89.500,252.867 89.587,252.933 89.692 C 253.006 89.812,252.978 89.840,252.859 89.766 C 252.753 89.701,252.667 89.731,252.667 89.833 C 252.667 89.936,252.585 89.969,252.484 89.907 C 252.372 89.837,252.474 89.681,252.752 89.499 L 253.202 89.204 252.260 88.851 L 251.319 88.499 179.677 88.500 C 119.086 88.501,108.022 88.537,107.947 88.730 C 107.891 88.876,107.673 88.938,107.346 88.900 C 107.021 88.862,106.831 88.915,106.828 89.045 C 106.825 89.178,106.751 89.157,106.620 88.987 C 106.297 88.570,105.767 88.516,105.346 88.857 M104.667 89.212 C 104.667 89.451,104.737 89.690,104.823 89.744 C 104.912 89.799,104.944 89.645,104.896 89.382 C 104.784 88.766,104.667 88.679,104.667 89.212 M251.942 89.083 C 252.442 89.292,252.507 89.374,252.336 89.580 C 252.191 89.755,252.046 89.781,251.838 89.669 C 251.676 89.583,251.484 89.565,251.412 89.631 C 251.339 89.696,251.337 89.651,251.407 89.530 C 251.477 89.409,251.657 89.353,251.809 89.406 C 252.011 89.476,251.998 89.435,251.760 89.250 C 251.473 89.029,243.287 89.000,179.914 89.000 L 108.391 89.000 108.020 89.395 C 107.685 89.751,107.677 89.802,107.931 89.899 C 108.087 89.959,108.177 90.045,108.131 90.091 C 107.922 90.300,107.542 89.938,107.545 89.532 C 107.547 89.285,107.580 89.175,107.620 89.287 C 107.676 89.447,107.738 89.447,107.911 89.287 C 108.033 89.175,108.098 89.027,108.056 88.958 C 107.892 88.687,251.291 88.811,251.942 89.083 M103.794 89.202 C 103.696 89.497,103.849 90.167,104.014 90.167 C 104.092 90.167,104.113 90.054,104.060 89.917 C 104.000 89.758,104.063 89.667,104.232 89.667 C 104.550 89.667,104.577 89.477,104.300 89.200 C 104.045 88.945,103.879 88.946,103.794 89.202 M252.208 90.944 C 251.931 91.055,251.941 91.333,252.222 91.333 C 252.344 91.333,252.444 91.221,252.444 91.083 C 252.444 90.946,252.438 90.839,252.431 90.846 C 252.423 90.854,252.323 90.897,252.208 90.944 M253.897 91.619 C 253.919 92.324,254.235 92.830,254.394 92.414 C 254.446 92.280,254.406 92.189,254.305 92.210 C 254.204 92.232,254.108 92.007,254.090 91.710 C 254.045 90.941,253.872 90.860,253.897 91.619 M252.000 91.594 C 252.000 91.646,252.078 91.834,252.173 92.011 C 252.412 92.458,252.713 92.420,252.586 91.958 C 252.485 91.593,252.490 91.592,252.742 91.908 C 252.885 92.086,252.959 92.368,252.906 92.533 C 252.854 92.698,252.891 92.833,252.989 92.833 C 253.087 92.833,253.167 92.716,253.167 92.573 C 253.167 92.431,253.241 92.359,253.331 92.415 C 253.429 92.476,253.452 92.401,253.386 92.231 C 253.303 92.015,253.334 91.980,253.513 92.088 C 253.713 92.208,253.715 92.188,253.529 91.959 C 253.405 91.805,253.193 91.731,253.044 91.788 C 252.868 91.856,252.819 91.824,252.899 91.695 C 252.981 91.562,252.857 91.500,252.510 91.500 C 252.229 91.500,252.000 91.542,252.000 91.594 M254.667 91.946 C 254.667 92.031,254.760 92.193,254.874 92.307 C 255.038 92.472,255.030 92.546,254.832 92.671 C 254.695 92.758,254.658 92.828,254.750 92.828 C 255.029 92.828,255.249 92.599,255.275 92.281 C 255.289 92.114,255.258 92.020,255.207 92.071 C 255.156 92.122,255.013 92.080,254.890 91.978 C 254.767 91.876,254.667 91.862,254.667 91.946 M256.925 92.377 C 257.015 92.613,257.662 93.061,257.764 92.958 C 257.800 92.922,257.607 92.729,257.336 92.528 C 257.065 92.328,256.879 92.260,256.925 92.377 M253.180 92.960 C 252.982 93.171,253.003 93.188,253.330 93.084 C 253.612 92.995,253.675 93.018,253.578 93.175 C 253.494 93.311,253.516 93.343,253.641 93.266 C 253.943 93.079,254.217 93.321,254.000 93.583 C 253.870 93.740,253.869 93.836,253.996 93.914 C 254.094 93.975,254.154 93.929,254.129 93.812 C 254.104 93.694,254.171 93.595,254.278 93.591 C 254.385 93.587,254.516 93.527,254.569 93.458 C 254.623 93.390,254.616 93.371,254.554 93.418 C 254.492 93.465,254.324 93.333,254.179 93.126 C 253.870 92.683,253.497 92.621,253.180 92.960 M255.556 92.875 C 255.556 92.990,255.732 93.083,255.948 93.083 C 256.302 93.083,256.312 93.063,256.055 92.875 C 255.898 92.760,255.721 92.667,255.663 92.667 C 255.604 92.667,255.556 92.760,255.556 92.875 M258.056 93.243 C 258.056 93.367,258.150 93.432,258.266 93.388 C 258.408 93.333,258.447 93.418,258.385 93.654 C 258.319 93.906,258.373 94.000,258.584 94.000 C 258.835 94.000,258.843 94.037,258.645 94.277 C 258.437 94.529,258.449 94.534,258.781 94.327 C 258.981 94.202,259.106 94.037,259.058 93.959 C 259.010 93.882,259.072 93.691,259.194 93.534 C 259.392 93.282,259.386 93.274,259.140 93.466 C 258.955 93.611,258.827 93.625,258.756 93.509 C 258.556 93.186,258.056 92.996,258.056 93.243 M260.599 94.124 C 260.439 94.284,260.486 94.528,260.657 94.423 C 260.743 94.370,260.967 94.491,261.155 94.693 C 261.343 94.894,261.535 95.021,261.582 94.974 C 261.629 94.927,261.449 94.694,261.182 94.457 C 260.916 94.219,260.653 94.069,260.599 94.124 M258.028 94.517 C 257.907 94.710,257.890 94.818,257.989 94.757 C 258.088 94.696,258.214 94.763,258.269 94.906 C 258.324 95.049,258.448 95.167,258.544 95.167 C 258.640 95.167,258.604 95.035,258.464 94.875 C 258.325 94.715,258.244 94.490,258.286 94.375 C 258.401 94.055,258.272 94.127,258.028 94.517 M259.333 94.323 C 259.333 94.433,259.242 94.467,259.125 94.400 C 259.010 94.334,258.972 94.341,259.040 94.416 C 259.108 94.491,259.077 94.658,258.970 94.786 C 258.821 94.965,258.826 95.007,258.991 94.968 C 259.109 94.940,259.228 95.048,259.255 95.208 C 259.311 95.542,259.071 95.606,258.944 95.292 C 258.878 95.128,258.857 95.130,258.846 95.297 C 258.839 95.414,258.945 95.553,259.082 95.606 C 259.219 95.659,259.289 95.770,259.238 95.854 C 259.186 95.937,259.068 95.959,258.976 95.902 C 258.884 95.845,258.908 95.963,259.029 96.165 C 259.225 96.491,259.208 96.560,258.875 96.786 C 258.516 97.030,258.362 97.355,258.625 97.314 C 259.064 97.244,259.247 97.341,259.000 97.512 C 258.795 97.654,258.809 97.674,259.083 97.624 C 259.267 97.591,259.398 97.474,259.375 97.365 C 259.352 97.256,259.418 97.185,259.521 97.208 C 259.878 97.288,259.787 96.360,259.429 96.266 C 259.247 96.219,259.144 96.133,259.201 96.076 C 259.442 95.836,259.969 96.331,259.873 96.706 C 259.786 97.042,259.806 97.058,260.054 96.855 C 260.236 96.706,260.333 96.691,260.333 96.813 C 260.333 96.916,260.254 97.000,260.157 97.000 C 260.060 97.000,260.034 97.087,260.099 97.192 C 260.170 97.307,260.145 97.340,260.037 97.273 C 259.938 97.212,259.809 97.237,259.752 97.331 C 259.694 97.424,259.722 97.500,259.813 97.500 C 259.904 97.500,260.189 97.587,260.447 97.694 C 260.706 97.800,260.960 97.879,261.014 97.870 C 261.067 97.860,261.111 97.960,261.111 98.093 C 261.111 98.396,261.126 98.399,260.403 97.992 C 259.928 97.725,259.701 97.686,259.356 97.813 C 259.033 97.931,258.999 97.977,259.229 97.987 C 259.464 97.997,259.497 98.053,259.363 98.214 C 259.229 98.376,259.262 98.429,259.497 98.429 C 259.669 98.429,259.776 98.375,259.735 98.309 C 259.694 98.243,259.730 98.147,259.813 98.096 C 259.897 98.044,260.011 98.122,260.068 98.270 C 260.156 98.499,260.211 98.505,260.450 98.310 C 260.693 98.113,260.715 98.120,260.623 98.367 C 260.550 98.560,260.587 98.623,260.738 98.565 C 260.860 98.518,261.106 98.665,261.285 98.892 C 261.511 99.180,261.680 99.261,261.845 99.160 C 262.033 99.044,262.038 98.972,261.874 98.807 C 261.760 98.693,261.667 98.662,261.667 98.737 C 261.667 98.812,261.562 98.787,261.434 98.681 C 261.137 98.434,261.287 97.833,261.644 97.836 C 261.801 97.837,261.846 97.891,261.750 97.961 C 261.658 98.028,261.567 98.170,261.547 98.276 C 261.501 98.521,261.957 98.704,262.088 98.493 C 262.142 98.405,262.102 98.333,262.000 98.333 C 261.898 98.333,261.862 98.254,261.922 98.158 C 262.091 97.884,262.380 98.061,262.444 98.477 C 262.477 98.698,262.432 98.811,262.334 98.750 C 262.242 98.693,262.167 98.762,262.167 98.903 C 262.167 99.117,262.237 99.128,262.588 98.968 C 262.894 98.828,262.951 98.738,262.796 98.640 C 262.640 98.541,262.661 98.504,262.875 98.503 C 263.214 98.500,263.259 98.841,262.960 99.140 C 262.745 99.355,263.032 99.675,263.417 99.651 C 263.518 99.645,263.515 99.612,263.409 99.568 C 263.313 99.528,263.265 99.233,263.302 98.914 C 263.346 98.535,263.300 98.333,263.169 98.333 C 262.728 98.333,262.005 97.647,262.037 97.259 C 262.057 97.019,262.151 96.902,262.284 96.953 C 262.448 97.016,262.440 96.897,262.251 96.445 C 262.023 95.900,262.027 95.855,262.294 95.866 C 262.453 95.873,262.696 95.832,262.833 95.777 C 263.091 95.673,264.040 96.381,263.960 96.619 C 263.936 96.691,263.985 96.787,264.067 96.833 C 264.150 96.879,264.236 96.793,264.259 96.641 C 264.320 96.226,263.236 95.235,262.965 95.458 C 262.537 95.810,261.577 95.786,261.640 95.424 C 261.683 95.178,261.643 95.141,261.473 95.269 C 261.350 95.362,261.156 95.423,261.042 95.406 C 260.927 95.389,260.761 95.366,260.672 95.354 C 260.583 95.343,260.548 95.235,260.594 95.114 C 260.689 94.869,260.058 94.219,259.889 94.388 C 259.830 94.448,259.680 94.414,259.557 94.311 C 259.391 94.174,259.333 94.177,259.333 94.323 M260.208 94.653 C 260.517 94.687,260.287 94.984,259.828 95.144 C 259.549 95.241,259.363 95.253,259.414 95.172 C 259.464 95.090,259.428 94.975,259.333 94.917 C 259.059 94.747,259.284 94.551,259.701 94.597 C 259.911 94.620,260.140 94.645,260.208 94.653 M261.833 94.591 C 261.833 94.759,262.630 95.481,262.719 95.392 C 262.824 95.287,262.164 94.500,261.970 94.500 C 261.895 94.500,261.833 94.541,261.833 94.591 M256.219 94.996 C 256.247 95.177,256.333 95.383,256.411 95.454 C 256.489 95.525,256.499 95.490,256.434 95.375 C 256.256 95.067,256.514 95.122,256.748 95.442 C 256.907 95.660,256.977 95.672,257.084 95.499 C 257.166 95.367,257.152 95.322,257.050 95.386 C 256.958 95.443,256.798 95.304,256.695 95.078 C 256.471 94.587,256.148 94.531,256.219 94.996 M258.418 95.951 C 258.335 96.152,258.269 96.182,258.217 96.042 C 258.114 95.768,257.889 95.774,257.889 96.050 C 257.889 96.362,258.454 96.360,258.574 96.048 C 258.716 95.679,258.568 95.587,258.418 95.951 M261.381 96.256 C 261.164 96.414,261.054 96.421,260.968 96.282 C 260.824 96.048,261.137 95.833,261.448 95.952 C 261.628 96.021,261.613 96.086,261.381 96.256 M262.536 96.558 C 262.586 96.819,262.528 97.075,262.393 97.186 C 262.147 97.391,262.076 97.742,262.311 97.597 C 262.390 97.548,262.590 97.656,262.754 97.837 C 263.076 98.194,263.333 98.266,263.333 98.000 C 263.333 97.908,263.202 97.827,263.042 97.820 C 262.856 97.812,262.828 97.776,262.965 97.721 C 263.131 97.654,263.136 97.580,262.987 97.400 C 262.880 97.272,262.848 97.167,262.917 97.167 C 262.985 97.167,262.950 97.057,262.839 96.924 C 262.729 96.790,262.683 96.608,262.738 96.519 C 262.794 96.429,262.752 96.303,262.645 96.237 C 262.510 96.153,262.477 96.250,262.536 96.558 M264.611 96.611 C 264.550 96.672,264.501 96.803,264.503 96.903 C 264.504 97.002,264.571 96.980,264.651 96.854 C 264.731 96.727,264.881 96.676,264.984 96.740 C 265.087 96.804,265.122 96.938,265.060 97.037 C 264.992 97.148,265.026 97.170,265.149 97.094 C 265.303 96.999,265.304 96.915,265.154 96.735 C 264.940 96.477,264.781 96.441,264.611 96.611 M260.981 97.428 C 261.071 97.373,261.186 97.396,261.238 97.480 C 261.392 97.730,260.924 97.812,260.618 97.588 C 260.461 97.474,260.333 97.323,260.333 97.253 C 260.333 97.183,260.443 97.216,260.576 97.327 C 260.710 97.438,260.892 97.484,260.981 97.428 M266.013 97.255 C 266.006 97.349,266.131 97.539,266.292 97.677 C 266.452 97.816,266.711 98.114,266.866 98.339 C 267.265 98.918,267.235 98.531,266.830 97.867 C 266.646 97.564,266.427 97.359,266.345 97.409 C 266.263 97.460,266.157 97.408,266.111 97.293 C 266.064 97.178,266.020 97.160,266.013 97.255 M263.503 97.542 C 263.501 97.702,263.619 97.833,263.764 97.833 C 263.909 97.833,263.993 97.927,263.951 98.042 C 263.909 98.156,263.788 98.230,263.681 98.206 C 263.574 98.182,263.654 98.388,263.858 98.664 C 264.307 99.271,264.481 99.333,264.099 98.750 C 263.949 98.521,263.902 98.333,263.994 98.333 C 264.087 98.333,264.148 98.151,264.129 97.929 C 264.111 97.706,264.028 97.566,263.946 97.617 C 263.864 97.668,263.731 97.606,263.651 97.480 C 263.536 97.298,263.505 97.311,263.503 97.542 M267.262 98.981 C 267.113 99.222,267.651 99.582,267.855 99.378 C 267.976 99.257,267.966 99.165,267.822 99.076 C 267.681 98.989,267.657 99.017,267.747 99.163 C 267.836 99.306,267.803 99.349,267.648 99.292 C 267.521 99.246,267.435 99.124,267.458 99.021 C 267.508 98.797,267.390 98.773,267.262 98.981 M261.784 99.439 C 261.571 99.651,261.662 99.788,262.002 99.769 C 262.187 99.759,262.341 99.675,262.344 99.583 C 262.352 99.381,261.946 99.276,261.784 99.439 M265.278 99.546 C 265.335 99.637,265.211 99.657,264.979 99.593 C 264.659 99.505,264.637 99.518,264.861 99.659 C 265.139 99.834,265.667 99.737,265.667 99.510 C 265.667 99.443,265.557 99.389,265.424 99.389 C 265.291 99.389,265.225 99.459,265.278 99.546 M269.173 99.840 C 269.548 100.215,269.879 100.957,269.759 101.153 C 269.716 101.222,269.783 101.278,269.908 101.278 C 270.088 101.278,270.096 101.189,269.950 100.847 C 269.682 100.220,269.168 99.500,268.989 99.500 C 268.903 99.500,268.986 99.653,269.173 99.840 M262.463 99.984 C 261.973 100.091,262.022 100.289,262.623 100.625 C 263.095 100.889,263.293 100.893,263.033 100.633 C 262.786 100.386,262.775 100.167,263.010 100.167 C 263.107 100.167,263.145 100.234,263.094 100.316 C 262.949 100.550,263.535 100.701,263.736 100.481 C 263.869 100.337,263.860 100.317,263.704 100.405 C 263.581 100.474,263.369 100.390,263.204 100.205 C 262.998 99.976,262.789 99.913,262.463 99.984 M263.946 100.042 C 264.019 100.156,264.079 100.300,264.081 100.361 C 264.082 100.422,264.134 100.523,264.196 100.585 C 264.258 100.647,264.282 100.559,264.250 100.390 C 264.218 100.221,264.186 100.027,264.179 99.958 C 264.172 99.890,264.087 99.833,263.990 99.833 C 263.890 99.833,263.871 99.923,263.946 100.042 M266.698 100.190 C 266.731 100.406,266.850 100.565,266.962 100.542 C 267.075 100.519,267.167 100.575,267.167 100.667 C 267.167 100.758,267.251 100.833,267.354 100.833 C 267.484 100.833,267.478 100.757,267.335 100.585 C 267.222 100.449,267.050 100.386,266.953 100.446 C 266.844 100.513,266.816 100.451,266.881 100.283 C 266.938 100.133,266.907 99.962,266.812 99.904 C 266.705 99.838,266.662 99.948,266.698 100.190 M263.814 100.964 C 263.804 101.029,263.809 101.219,263.826 101.385 C 263.844 101.551,263.762 101.813,263.645 101.968 C 263.467 102.204,263.470 102.217,263.661 102.047 C 263.841 101.887,263.929 101.900,264.083 102.111 C 264.261 102.354,264.278 102.354,264.278 102.105 C 264.278 101.956,264.215 101.833,264.139 101.833 C 264.063 101.833,264.000 101.679,264.000 101.490 C 264.000 101.301,264.075 101.193,264.167 101.250 C 264.258 101.307,264.333 101.282,264.333 101.194 C 264.333 101.007,263.842 100.789,263.814 100.964 M264.282 101.482 C 264.116 101.684,264.145 101.708,264.459 101.628 C 264.757 101.551,264.856 101.614,264.935 101.932 C 265.046 102.373,265.128 102.407,265.500 102.167 C 265.707 102.033,265.693 102.004,265.417 102.000 C 265.140 101.996,265.126 101.967,265.333 101.833 C 265.556 101.689,265.457 101.596,265.131 101.645 C 265.066 101.655,265.053 101.555,265.104 101.424 C 265.226 101.105,264.552 101.152,264.282 101.482 M266.500 101.528 C 266.500 101.604,266.579 101.667,266.677 101.667 C 266.774 101.667,266.799 101.753,266.734 101.859 C 266.660 101.978,266.688 102.006,266.808 101.933 C 266.913 101.867,267.000 101.906,267.000 102.018 C 267.000 102.130,267.048 102.174,267.107 102.115 C 267.166 102.056,267.129 101.906,267.025 101.780 C 266.921 101.655,266.873 101.516,266.918 101.471 C 266.963 101.426,266.887 101.389,266.750 101.389 C 266.612 101.389,266.500 101.451,266.500 101.528 M265.547 102.816 C 265.535 103.055,265.563 103.156,265.610 103.042 C 265.742 102.716,266.049 102.797,265.925 103.125 C 265.823 103.396,265.835 103.398,266.094 103.141 C 266.406 102.833,266.323 102.580,265.870 102.461 C 265.640 102.401,265.563 102.485,265.547 102.816 M269.583 102.667 C 269.640 102.758,269.799 102.833,269.936 102.833 C 270.083 102.833,270.137 102.913,270.067 103.026 C 269.994 103.145,270.022 103.173,270.141 103.099 C 270.247 103.034,270.333 103.042,270.333 103.117 C 270.333 103.192,270.485 103.348,270.670 103.464 C 270.979 103.656,270.991 103.647,270.809 103.357 C 270.622 103.057,269.829 102.500,269.589 102.500 C 269.529 102.500,269.527 102.575,269.583 102.667 M272.096 103.191 C 271.919 103.361,271.844 103.499,271.929 103.497 C 272.201 103.493,272.543 103.211,272.479 103.043 C 272.445 102.954,272.272 103.021,272.096 103.191 M271.554 104.083 C 271.585 104.440,271.796 104.660,272.110 104.664 C 272.326 104.667,272.311 104.249,272.089 104.046 C 272.011 103.975,272.001 104.010,272.066 104.125 C 272.249 104.441,271.983 104.374,271.739 104.042 C 271.539 103.770,271.527 103.772,271.554 104.083 M274.236 104.029 C 274.533 104.201,274.536 104.228,274.273 104.421 C 274.009 104.613,274.009 104.635,274.269 104.734 C 274.422 104.793,274.587 104.802,274.635 104.754 C 274.683 104.706,274.630 104.667,274.518 104.667 C 274.406 104.667,274.361 104.590,274.418 104.497 C 274.476 104.404,274.593 104.371,274.678 104.424 C 274.922 104.574,274.860 104.384,274.571 104.095 C 274.427 103.951,274.221 103.836,274.113 103.838 C 274.005 103.841,274.060 103.927,274.236 104.029 M274.729 105.044 C 274.526 105.649,274.519 105.833,274.702 105.833 C 274.805 105.833,274.792 105.932,274.668 106.081 C 274.394 106.412,274.218 106.277,274.071 105.623 C 273.997 105.293,273.917 105.181,273.865 105.333 C 273.818 105.471,273.660 105.678,273.515 105.794 C 273.369 105.910,273.325 105.995,273.417 105.983 C 273.796 105.932,273.901 106.016,273.667 106.180 C 273.474 106.315,273.507 106.330,273.813 106.243 C 274.094 106.163,274.173 106.188,274.088 106.327 C 274.020 106.436,274.102 106.625,274.275 106.756 C 274.445 106.884,274.495 106.992,274.387 106.995 C 274.279 106.998,274.073 106.882,273.929 106.738 C 273.785 106.594,273.667 106.553,273.667 106.646 C 273.667 106.740,273.788 106.884,273.936 106.967 C 274.243 107.139,273.991 107.831,273.619 107.836 C 273.492 107.837,273.510 107.899,273.667 108.000 C 273.999 108.214,274.333 108.210,274.333 107.990 C 274.333 107.893,274.265 107.856,274.182 107.907 C 274.099 107.958,274.071 107.849,274.119 107.664 C 274.220 107.280,274.538 107.018,274.491 107.358 C 274.412 107.940,274.505 108.154,274.792 108.047 C 275.057 107.948,275.061 107.967,274.833 108.260 C 274.597 108.566,274.601 108.570,274.917 108.339 C 275.100 108.204,275.278 108.076,275.313 108.053 C 275.348 108.031,275.182 107.924,274.943 107.815 C 274.705 107.707,274.552 107.550,274.603 107.468 C 274.655 107.383,274.800 107.403,274.932 107.512 C 275.118 107.667,275.167 107.651,275.167 107.437 C 275.167 107.288,275.110 107.176,275.042 107.186 C 274.718 107.238,274.490 107.152,274.576 107.012 C 274.629 106.926,274.590 106.806,274.490 106.744 C 274.372 106.671,274.430 106.518,274.656 106.308 C 274.915 106.067,274.963 105.909,274.847 105.691 C 274.751 105.513,274.750 105.304,274.842 105.158 C 274.972 104.953,274.995 104.956,274.997 105.179 C 274.999 105.324,275.185 105.616,275.412 105.829 C 275.638 106.041,275.784 106.278,275.736 106.356 C 275.688 106.433,275.766 106.452,275.908 106.397 C 276.250 106.266,276.263 106.298,275.511 105.429 C 274.886 104.707,274.848 104.689,274.729 105.044 M268.667 105.332 C 268.477 105.452,268.538 105.488,268.917 105.479 C 269.192 105.473,269.628 105.502,269.887 105.545 C 270.145 105.588,270.295 105.567,270.220 105.499 C 269.980 105.280,268.926 105.166,268.667 105.332 M270.714 105.559 C 270.803 105.825,271.111 105.869,271.111 105.616 C 271.111 105.491,271.009 105.389,270.884 105.389 C 270.759 105.389,270.683 105.465,270.714 105.559 M270.623 106.167 C 270.946 106.642,271.080 107.274,270.810 107.050 C 270.619 106.891,270.571 106.909,270.571 107.143 C 270.571 107.332,270.701 107.433,270.942 107.433 C 271.145 107.433,271.275 107.373,271.229 107.300 C 271.184 107.227,271.226 107.167,271.323 107.167 C 271.473 107.167,271.568 107.482,271.529 107.847 C 271.523 107.901,271.788 107.938,272.118 107.931 C 272.584 107.920,272.727 107.987,272.764 108.233 C 272.790 108.407,272.939 108.669,273.096 108.816 C 273.252 108.963,273.328 108.990,273.264 108.875 C 273.061 108.513,273.469 108.650,273.739 109.035 C 273.909 109.278,273.941 109.459,273.832 109.568 C 273.590 109.810,273.630 110.050,273.896 109.948 C 274.023 109.899,274.221 109.947,274.337 110.055 C 274.500 110.205,274.522 110.202,274.431 110.042 C 274.367 109.927,274.378 109.833,274.457 109.833 C 274.536 109.833,274.701 109.927,274.824 110.042 C 275.004 110.208,275.025 110.208,274.931 110.042 C 274.867 109.927,274.887 109.833,274.976 109.833 C 275.066 109.833,275.170 109.927,275.209 110.042 C 275.264 110.206,275.331 110.207,275.527 110.046 C 275.722 109.884,275.818 109.884,275.981 110.046 C 276.143 110.207,276.165 110.193,276.082 109.975 C 275.949 109.627,276.321 109.380,276.516 109.687 C 276.596 109.813,276.663 109.838,276.664 109.742 C 276.667 109.532,276.324 109.167,276.123 109.167 C 276.045 109.167,276.023 109.236,276.076 109.322 C 276.129 109.407,276.096 109.524,276.003 109.582 C 275.910 109.639,275.833 109.569,275.833 109.427 C 275.833 109.284,275.716 109.167,275.573 109.167 C 275.431 109.167,275.355 109.100,275.405 109.019 C 275.455 108.938,275.382 108.776,275.243 108.661 C 275.022 108.477,275.010 108.505,275.151 108.875 C 275.239 109.108,275.269 109.343,275.216 109.396 C 275.162 109.449,275.242 109.539,275.392 109.597 C 275.542 109.654,275.626 109.764,275.579 109.841 C 275.437 110.070,274.601 109.494,274.090 108.815 C 273.828 108.466,273.550 108.219,273.473 108.267 C 273.396 108.314,273.333 108.291,273.333 108.214 C 273.333 108.097,273.062 107.931,271.930 107.356 C 271.846 107.314,271.826 107.407,271.886 107.565 C 271.952 107.735,271.929 107.809,271.831 107.749 C 271.741 107.693,271.667 107.557,271.667 107.447 C 271.667 107.337,271.394 106.947,271.060 106.582 C 270.726 106.216,270.529 106.029,270.623 106.167 M272.416 106.334 C 272.327 106.478,272.347 106.511,272.474 106.433 C 272.580 106.367,272.667 106.393,272.667 106.490 C 272.667 106.587,272.554 106.667,272.417 106.667 C 272.279 106.667,272.168 106.798,272.169 106.958 C 272.171 107.154,272.213 107.185,272.298 107.052 C 272.433 106.839,273.136 106.860,273.516 107.090 C 273.715 107.210,273.716 107.189,273.521 106.949 C 273.395 106.794,273.216 106.667,273.123 106.667 C 273.030 106.667,272.863 106.543,272.752 106.391 C 272.593 106.173,272.523 106.161,272.416 106.334 M277.732 106.877 C 277.667 106.990,277.671 107.032,277.741 106.968 C 278.009 106.728,278.952 108.007,278.749 108.335 C 278.693 108.425,278.762 108.453,278.907 108.397 C 279.051 108.342,279.111 108.214,279.043 108.108 C 278.976 108.003,278.914 107.879,278.905 107.833 C 278.779 107.216,277.934 106.526,277.732 106.877 M275.500 108.051 C 275.500 108.206,275.498 108.385,275.495 108.448 C 275.493 108.511,275.605 108.579,275.745 108.600 C 276.061 108.646,276.061 108.511,275.745 108.093 C 275.531 107.811,275.500 107.806,275.500 108.051 M276.667 108.077 C 276.667 108.218,276.779 108.333,276.917 108.333 C 277.054 108.333,277.167 108.421,277.167 108.528 C 277.167 108.635,277.217 108.671,277.280 108.609 C 277.342 108.547,277.229 108.344,277.030 108.158 C 276.738 107.887,276.667 107.871,276.667 108.077 M279.560 108.628 C 279.621 108.727,279.539 108.835,279.377 108.867 C 279.109 108.921,279.108 108.936,279.361 109.036 C 279.681 109.162,279.923 108.742,279.634 108.563 C 279.526 108.496,279.495 108.524,279.560 108.628 M277.979 109.223 C 278.245 109.545,278.596 109.583,278.766 109.308 C 278.839 109.190,278.812 109.160,278.696 109.232 C 278.592 109.296,278.337 109.258,278.128 109.147 C 277.785 108.964,277.771 108.971,277.979 109.223 M277.269 109.970 C 277.215 110.057,277.276 110.217,277.405 110.324 C 277.590 110.477,277.632 110.465,277.603 110.264 C 277.552 109.920,277.388 109.776,277.269 109.970 M275.564 110.365 C 275.494 110.478,275.524 110.505,275.641 110.433 C 275.755 110.362,275.833 110.420,275.833 110.573 C 275.833 110.716,275.913 110.833,276.010 110.833 C 276.107 110.833,276.139 110.740,276.081 110.625 C 276.023 110.510,276.082 110.547,276.212 110.706 C 276.343 110.865,276.498 110.946,276.558 110.886 C 276.618 110.827,276.667 110.864,276.667 110.970 C 276.667 111.076,276.506 111.145,276.310 111.123 C 276.114 111.101,275.923 111.168,275.886 111.273 C 275.824 111.445,275.978 111.455,277.117 111.352 C 277.389 111.327,276.679 110.634,276.123 110.381 C 275.799 110.234,275.648 110.229,275.564 110.365 M277.899 111.202 C 278.046 111.451,278.167 111.770,278.167 111.911 C 278.167 112.052,278.226 112.167,278.298 112.167 C 278.496 112.167,278.455 111.501,278.256 111.495 C 278.161 111.492,278.229 111.379,278.407 111.245 C 278.585 111.110,278.645 111.000,278.542 111.000 C 278.438 111.000,278.304 111.079,278.244 111.177 C 278.174 111.289,278.043 111.243,277.883 111.052 C 277.688 110.818,277.692 110.852,277.899 111.202 M278.892 111.242 C 278.786 111.357,278.757 111.543,278.827 111.656 C 278.914 111.797,278.985 111.741,279.054 111.480 C 279.175 111.017,279.142 110.970,278.892 111.242 M280.077 111.268 C 280.266 111.456,280.294 111.596,280.174 111.741 C 280.080 111.855,280.058 112.013,280.126 112.093 C 280.194 112.173,280.131 112.148,279.985 112.038 C 279.839 111.927,279.670 111.886,279.610 111.946 C 279.415 112.141,279.493 112.333,279.768 112.333 C 279.932 112.333,280.000 112.426,279.944 112.573 C 279.893 112.704,279.942 112.845,280.051 112.885 C 280.200 112.940,280.195 113.015,280.030 113.188 C 279.843 113.382,279.818 113.381,279.863 113.181 C 279.894 113.047,279.739 112.897,279.500 112.832 L 279.083 112.718 279.500 112.631 C 279.897 112.549,279.899 112.544,279.536 112.523 C 279.212 112.503,279.181 112.451,279.328 112.177 C 279.451 111.946,279.446 111.819,279.308 111.734 C 279.188 111.660,279.160 111.688,279.234 111.808 C 279.309 111.929,279.227 112.000,279.010 112.000 C 278.821 112.000,278.667 112.079,278.667 112.177 C 278.667 112.274,278.742 112.307,278.833 112.250 C 278.925 112.193,279.000 112.272,279.000 112.425 C 279.000 112.609,278.912 112.668,278.736 112.601 C 278.591 112.546,278.339 112.500,278.176 112.500 C 277.964 112.500,277.891 112.389,277.922 112.111 C 277.948 111.873,277.876 111.722,277.738 111.722 C 277.508 111.722,277.511 112.004,277.745 112.547 C 277.835 112.757,277.976 112.812,278.228 112.734 C 278.423 112.674,278.528 112.684,278.460 112.756 C 278.392 112.827,278.400 112.968,278.477 113.068 C 278.857 113.558,278.797 113.946,278.352 113.881 C 277.972 113.826,277.987 113.850,278.475 114.074 C 278.860 114.251,279.119 114.281,279.308 114.171 C 279.563 114.022,279.563 114.010,279.309 114.005 C 279.095 114.001,278.685 113.500,278.896 113.500 C 279.107 113.500,280.000 114.057,280.000 114.189 C 280.000 114.279,279.941 114.316,279.868 114.271 C 279.795 114.226,279.728 114.353,279.718 114.553 C 279.709 114.753,279.737 114.823,279.781 114.708 C 279.866 114.486,280.180 114.415,280.147 114.625 C 280.067 115.131,280.200 115.725,280.324 115.417 C 280.398 115.233,280.433 115.040,280.403 114.986 C 280.373 114.933,280.457 114.889,280.591 114.889 C 280.724 114.889,280.833 115.020,280.833 115.181 C 280.833 115.341,280.884 115.604,280.945 115.764 C 281.025 115.973,280.997 116.018,280.845 115.924 C 280.678 115.821,280.673 115.867,280.821 116.143 C 280.923 116.335,281.165 116.577,281.357 116.679 C 281.628 116.825,281.678 116.821,281.580 116.662 C 281.498 116.528,281.534 116.486,281.685 116.541 C 281.812 116.587,281.894 116.722,281.866 116.841 C 281.824 117.017,281.862 117.017,282.074 116.841 C 282.217 116.723,282.339 116.654,282.346 116.688 C 282.353 116.722,282.385 116.888,282.417 117.057 C 282.494 117.466,282.667 117.625,282.667 117.288 C 282.667 117.140,282.754 116.965,282.862 116.899 C 282.990 116.820,283.023 116.867,282.957 117.040 C 282.891 117.212,282.971 117.330,283.191 117.388 C 283.433 117.451,283.501 117.410,283.435 117.238 C 283.385 117.107,283.421 117.000,283.515 117.000 C 283.609 117.000,283.639 116.924,283.582 116.831 C 283.524 116.737,283.388 116.714,283.280 116.779 C 283.172 116.844,283.196 116.756,283.333 116.583 C 283.471 116.411,283.508 116.312,283.417 116.363 C 283.325 116.415,283.100 116.312,282.917 116.134 C 282.586 115.812,282.586 115.811,283.054 115.989 C 283.785 116.267,284.350 117.000,283.833 117.000 C 283.742 117.000,283.667 117.114,283.667 117.253 C 283.667 117.426,283.812 117.494,284.130 117.470 C 284.384 117.451,284.696 117.498,284.822 117.576 C 284.993 117.682,285.014 117.658,284.904 117.484 C 284.823 117.355,284.744 117.034,284.730 116.770 C 284.715 116.506,284.751 116.364,284.810 116.454 C 284.869 116.544,285.142 116.739,285.417 116.886 C 285.692 117.033,285.820 117.156,285.702 117.160 C 285.540 117.165,285.532 117.247,285.666 117.498 C 285.763 117.681,285.897 117.822,285.963 117.812 C 286.354 117.753,286.487 117.900,286.545 118.458 L 286.611 119.083 286.639 118.455 C 286.662 117.932,286.596 117.794,286.250 117.636 C 285.767 117.416,285.702 117.169,286.125 117.161 C 286.285 117.158,286.137 117.023,285.794 116.861 C 285.202 116.580,285.186 116.552,285.461 116.272 C 285.678 116.051,285.690 115.991,285.510 116.031 C 285.378 116.060,285.238 115.936,285.199 115.755 C 285.139 115.475,285.166 115.459,285.388 115.643 C 285.609 115.826,285.644 115.809,285.623 115.524 C 285.609 115.340,285.538 115.226,285.465 115.271 C 285.393 115.316,285.333 115.284,285.333 115.199 C 285.333 115.115,285.145 115.066,284.916 115.092 C 284.686 115.117,284.539 115.072,284.588 114.993 C 284.637 114.913,284.778 114.886,284.900 114.934 C 285.284 115.081,285.329 114.547,284.960 114.224 C 284.767 114.055,284.659 114.003,284.720 114.108 C 284.781 114.213,284.715 114.343,284.572 114.398 C 284.429 114.453,284.359 114.573,284.416 114.665 C 284.473 114.758,284.432 114.833,284.325 114.833 C 284.218 114.833,284.171 114.730,284.219 114.604 C 284.268 114.477,284.219 114.279,284.112 114.163 C 283.963 114.001,283.963 113.977,284.113 114.062 C 284.222 114.122,284.353 114.104,284.404 114.020 C 284.489 113.883,284.292 113.739,283.957 113.691 C 283.887 113.681,283.615 113.562,283.353 113.427 C 283.090 113.291,282.817 113.233,282.744 113.298 C 282.672 113.363,282.668 113.322,282.734 113.207 C 282.876 112.960,282.404 112.418,282.255 112.658 C 282.201 112.746,282.034 112.772,281.884 112.714 C 281.688 112.639,281.650 112.671,281.748 112.831 C 281.835 112.971,281.820 113.011,281.708 112.942 C 281.585 112.866,281.590 112.708,281.724 112.421 C 281.916 112.009,281.917 112.009,282.007 112.378 C 282.072 112.643,282.135 112.687,282.230 112.532 C 282.324 112.380,282.424 112.368,282.572 112.491 C 282.726 112.619,282.830 112.556,282.970 112.249 C 283.086 111.996,283.096 111.833,282.996 111.833 C 282.907 111.833,282.833 111.954,282.833 112.101 C 282.833 112.277,282.743 112.334,282.570 112.268 C 282.425 112.212,282.270 112.167,282.227 112.167 C 282.183 112.167,282.197 112.086,282.258 111.986 C 282.329 111.872,282.226 111.826,281.977 111.861 C 281.664 111.905,281.593 111.848,281.632 111.583 C 281.672 111.309,281.650 111.294,281.510 111.500 C 281.388 111.677,281.338 111.688,281.336 111.536 C 281.334 111.372,281.253 111.364,280.995 111.502 C 280.809 111.602,280.701 111.754,280.754 111.840 C 280.807 111.926,280.731 111.950,280.585 111.894 C 280.345 111.802,280.344 111.764,280.576 111.508 C 280.718 111.352,280.833 111.159,280.833 111.080 C 280.833 111.001,280.733 111.074,280.610 111.242 C 280.408 111.517,280.377 111.520,280.282 111.273 C 280.224 111.123,280.094 111.000,279.993 111.000 C 279.892 111.000,279.930 111.120,280.077 111.268 M283.667 111.293 C 283.667 111.384,283.779 111.553,283.917 111.667 C 284.056 111.782,284.167 111.800,284.167 111.707 C 284.167 111.616,284.054 111.447,283.917 111.333 C 283.777 111.218,283.667 111.200,283.667 111.293 M275.941 111.794 C 275.898 111.863,275.962 112.055,276.082 112.220 C 276.220 112.409,276.342 112.455,276.411 112.343 C 276.471 112.246,276.443 112.167,276.348 112.167 C 276.254 112.167,276.220 112.054,276.273 111.917 C 276.370 111.664,276.086 111.559,275.941 111.794 M281.237 112.040 C 281.131 112.374,281.148 112.390,281.396 112.183 C 281.638 111.983,281.661 111.988,281.569 112.226 C 281.454 112.526,281.345 112.558,281.067 112.372 C 280.804 112.197,280.846 111.667,281.122 111.667 C 281.288 111.667,281.322 111.775,281.237 112.040 M280.688 112.449 C 280.843 112.640,280.850 112.691,280.708 112.605 C 280.591 112.535,280.500 112.562,280.500 112.667 C 280.500 112.769,280.428 112.809,280.341 112.754 C 280.253 112.700,280.223 112.546,280.275 112.411 C 280.393 112.104,280.410 112.106,280.688 112.449 M283.438 112.631 C 283.303 112.850,283.720 113.006,283.991 112.839 C 284.141 112.746,284.148 112.675,284.018 112.594 C 283.916 112.532,283.832 112.579,283.831 112.698 C 283.829 112.872,283.799 112.871,283.685 112.691 C 283.597 112.551,283.502 112.529,283.438 112.631 M280.964 113.269 C 281.074 113.386,281.099 113.522,281.021 113.571 C 280.942 113.619,280.755 113.523,280.605 113.357 C 280.407 113.139,280.392 113.056,280.548 113.056 C 280.667 113.056,280.854 113.152,280.964 113.269 M282.125 113.300 C 281.965 113.332,281.833 113.432,281.833 113.522 C 281.833 113.612,281.754 113.637,281.657 113.577 C 281.545 113.508,281.591 113.387,281.780 113.249 C 281.945 113.128,282.155 113.077,282.248 113.136 C 282.341 113.194,282.285 113.268,282.125 113.300 M283.398 113.927 C 283.472 114.121,283.430 114.126,283.160 113.957 C 282.981 113.845,282.833 113.699,282.833 113.632 C 282.833 113.430,283.301 113.675,283.398 113.927 M280.899 113.879 C 280.964 113.813,280.962 113.908,280.894 114.088 C 280.790 114.367,280.810 114.385,281.024 114.211 C 281.227 114.046,281.340 114.056,281.597 114.262 C 281.904 114.508,281.902 114.511,281.552 114.342 C 281.305 114.223,281.153 114.221,281.082 114.336 C 280.947 114.554,280.719 114.410,280.474 113.949 C 280.304 113.631,280.312 113.610,280.530 113.790 C 280.668 113.904,280.834 113.944,280.899 113.879 M281.331 115.505 C 281.334 115.239,281.789 115.783,281.799 116.065 C 281.802 116.146,281.896 116.269,282.007 116.338 C 282.119 116.407,281.963 116.451,281.659 116.435 C 281.341 116.419,281.074 116.304,281.027 116.162 C 280.958 115.952,280.986 115.950,281.223 116.145 C 281.375 116.271,281.500 116.299,281.500 116.207 C 281.500 116.116,281.387 115.947,281.250 115.833 C 281.112 115.719,281.001 115.541,281.003 115.438 C 281.004 115.335,281.078 115.362,281.167 115.500 C 281.307 115.717,281.329 115.718,281.331 115.505 M285.207 116.167 C 285.307 116.167,285.341 116.215,285.282 116.274 C 285.111 116.444,284.658 115.982,284.790 115.773 C 284.868 115.649,284.929 115.684,284.967 115.875 C 284.998 116.035,285.106 116.167,285.207 116.167 M291.224 115.938 C 291.113 115.984,291.065 116.225,291.110 116.512 C 291.162 116.840,291.121 116.992,290.990 116.962 C 290.881 116.937,290.757 117.010,290.715 117.125 C 290.666 117.259,290.734 117.297,290.903 117.232 C 291.048 117.177,291.167 117.214,291.167 117.316 C 291.167 117.417,291.254 117.500,291.361 117.500 C 291.468 117.500,291.506 117.451,291.446 117.390 C 291.386 117.330,291.429 117.166,291.543 117.025 C 291.695 116.838,291.697 116.801,291.550 116.889 C 291.406 116.976,291.366 116.845,291.407 116.421 C 291.438 116.098,291.453 115.839,291.440 115.846 C 291.427 115.854,291.330 115.895,291.224 115.938 M284.429 117.087 C 284.086 117.346,283.895 117.305,284.076 117.011 C 284.137 116.913,284.313 116.836,284.468 116.839 C 284.716 116.843,284.711 116.874,284.429 117.087 M290.148 117.575 C 290.013 117.709,290.198 119.000,290.351 119.000 C 290.433 119.000,290.500 118.737,290.500 118.417 C 290.500 118.096,290.421 117.833,290.323 117.833 C 290.226 117.833,290.193 117.758,290.250 117.667 C 290.354 117.498,290.285 117.437,290.148 117.575 M285.325 118.379 C 285.406 119.066,285.410 119.069,285.466 118.520 C 285.498 118.211,285.461 117.894,285.383 117.816 C 285.306 117.739,285.279 117.992,285.325 118.379 M291.066 117.903 C 291.016 118.032,291.007 118.351,291.046 118.611 C 291.105 119.006,291.125 118.974,291.165 118.417 L 291.214 117.750 291.333 118.417 L 291.453 119.083 291.476 118.375 C 291.499 117.694,291.254 117.412,291.066 117.903 M289.709 118.417 C 289.711 118.783,289.745 118.914,289.785 118.706 C 289.824 118.499,289.823 118.199,289.781 118.040 C 289.739 117.880,289.707 118.050,289.709 118.417 " stroke="none" fill="#fcf4f4" fill-rule="evenodd"></path><path id="path2" d="" stroke="none" fill="#100fcf4" fill-rule="evenodd"></path><path id="path3" d="" stroke="none" fill="#100fcf4" fill-rule="evenodd"></path><path id="path4" d="" stroke="none" fill="#100fcf4" fill-rule="evenodd"></path></g></svg>